<?xml version="1.0" encoding="iso-8859-1"?>
<!-- Generator: Adobe Illustrator 19.0.0, SVG Export Plug-In . SVG Version: 6.00 Build 0)  -->
<svg version="1.1" id="Layer_1" xmlns="http://www.w3.org/2000/svg" xmlns:xlink="http://www.w3.org/1999/xlink" x="0px" y="0px"
	 viewBox="0 0 512 512" style="enable-background:new 0 0 512 512;" xml:space="preserve">
<g>
	<circle style="fill:#FEDEA1;" cx="256" cy="281.6" r="25.6"/>
	<circle style="fill:#FEDEA1;" cx="256" cy="409.6" r="25.6"/>
	<circle style="fill:#FEDEA1;" cx="396.8" cy="409.6" r="25.6"/>
	<circle style="fill:#FEDEA1;" cx="115.2" cy="281.6" r="25.6"/>
	<circle style="fill:#FEDEA1;" cx="115.2" cy="409.6" r="25.6"/>
	<circle style="fill:#FEDEA1;" cx="396.8" cy="281.6" r="25.6"/>
</g>
<path style="fill:#FF877F;" d="M12.8,192v-64c0-35.294,28.706-64,64-64h358.4c35.294,0,64,28.706,64,64v64H12.8z"/>
<path style="fill:#E9EBEF;" d="M76.8,499.2c-35.294,0-64-28.706-64-64V192h486.4v243.2c0,35.294-28.706,64-64,64H76.8z M396.8,384
	c-14.114,0-25.6,11.486-25.6,25.6c0,14.114,11.486,25.6,25.6,25.6s25.6-11.486,25.6-25.6C422.4,395.486,410.914,384,396.8,384z
	 M256,384c-14.114,0-25.6,11.486-25.6,25.6c0,14.114,11.486,25.6,25.6,25.6c14.114,0,25.6-11.486,25.6-25.6
	C281.6,395.486,270.114,384,256,384z M115.2,384c-14.114,0-25.6,11.486-25.6,25.6c0,14.114,11.486,25.6,25.6,25.6
	s25.6-11.486,25.6-25.6C140.8,395.486,129.314,384,115.2,384z M396.8,256c-14.114,0-25.6,11.486-25.6,25.6
	c0,14.114,11.486,25.6,25.6,25.6s25.6-11.486,25.6-25.6C422.4,267.486,410.914,256,396.8,256z M256,256
	c-14.114,0-25.6,11.486-25.6,25.6c0,14.114,11.486,25.6,25.6,25.6c14.114,0,25.6-11.486,25.6-25.6
	C281.6,267.486,270.114,256,256,256z M115.2,256c-14.114,0-25.6,11.486-25.6,25.6c0,14.114,11.486,25.6,25.6,25.6
	s25.6-11.486,25.6-25.6C140.8,267.486,129.314,256,115.2,256z"/>
<g>
	<path style="fill:#573A32;" d="M435.2,51.2h-25.6V12.8c0-7.074-5.726-12.8-12.8-12.8S384,5.726,384,12.8v38.4H128V12.8
		C128,5.726,122.274,0,115.2,0c-7.074,0-12.8,5.726-12.8,12.8v38.4H76.8C34.449,51.2,0,85.649,0,128v307.2
		C0,477.551,34.449,512,76.8,512h358.4c42.351,0,76.8-34.449,76.8-76.8V128C512,85.649,477.551,51.2,435.2,51.2z M486.4,435.2
		c0,28.279-22.921,51.2-51.2,51.2H76.8c-28.279,0-51.2-22.921-51.2-51.2V204.8h460.8V435.2z M486.4,179.2H25.6V128
		c0-28.279,22.921-51.2,51.2-51.2h25.6v38.4c0,7.074,5.726,12.8,12.8,12.8c7.074,0,12.8-5.726,12.8-12.8V76.8h256v38.4
		c0,7.074,5.726,12.8,12.8,12.8s12.8-5.726,12.8-12.8V76.8h25.6c28.279,0,51.2,22.921,51.2,51.2V179.2z"/>
	<path style="fill:#573A32;" d="M115.2,320c21.205,0,38.4-17.195,38.4-38.4c0-21.205-17.195-38.4-38.4-38.4s-38.4,17.195-38.4,38.4
		C76.8,302.805,93.995,320,115.2,320z M115.2,268.8c7.057,0,12.8,5.743,12.8,12.8s-5.743,12.8-12.8,12.8
		c-7.057,0-12.8-5.743-12.8-12.8S108.143,268.8,115.2,268.8z"/>
	<path style="fill:#573A32;" d="M256,320c21.205,0,38.4-17.195,38.4-38.4c0-21.205-17.195-38.4-38.4-38.4
		c-21.205,0-38.4,17.195-38.4,38.4C217.6,302.805,234.795,320,256,320z M256,268.8c7.057,0,12.8,5.743,12.8,12.8
		s-5.743,12.8-12.8,12.8c-7.057,0-12.8-5.743-12.8-12.8S248.943,268.8,256,268.8z"/>
	<path style="fill:#573A32;" d="M396.8,320c21.205,0,38.4-17.195,38.4-38.4c0-21.205-17.195-38.4-38.4-38.4
		c-21.205,0-38.4,17.195-38.4,38.4C358.4,302.805,375.595,320,396.8,320z M396.8,268.8c7.057,0,12.8,5.743,12.8,12.8
		s-5.743,12.8-12.8,12.8s-12.8-5.743-12.8-12.8S389.743,268.8,396.8,268.8z"/>
	<path style="fill:#573A32;" d="M115.2,448c21.205,0,38.4-17.195,38.4-38.4c0-21.205-17.195-38.4-38.4-38.4s-38.4,17.195-38.4,38.4
		C76.8,430.805,93.995,448,115.2,448z M115.2,396.8c7.057,0,12.8,5.743,12.8,12.8c0,7.057-5.743,12.8-12.8,12.8
		c-7.057,0-12.8-5.743-12.8-12.8C102.4,402.543,108.143,396.8,115.2,396.8z"/>
	<path style="fill:#573A32;" d="M256,448c21.205,0,38.4-17.195,38.4-38.4c0-21.205-17.195-38.4-38.4-38.4
		c-21.205,0-38.4,17.195-38.4,38.4C217.6,430.805,234.795,448,256,448z M256,396.8c7.057,0,12.8,5.743,12.8,12.8
		c0,7.057-5.743,12.8-12.8,12.8c-7.057,0-12.8-5.743-12.8-12.8C243.2,402.543,248.943,396.8,256,396.8z"/>
	<path style="fill:#573A32;" d="M396.8,448c21.205,0,38.4-17.195,38.4-38.4c0-21.205-17.195-38.4-38.4-38.4
		c-21.205,0-38.4,17.195-38.4,38.4C358.4,430.805,375.595,448,396.8,448z M396.8,396.8c7.057,0,12.8,5.743,12.8,12.8
		c0,7.057-5.743,12.8-12.8,12.8s-12.8-5.743-12.8-12.8C384,402.543,389.743,396.8,396.8,396.8z"/>
</g>
<g>
</g>
<g>
</g>
<g>
</g>
<g>
</g>
<g>
</g>
<g>
</g>
<g>
</g>
<g>
</g>
<g>
</g>
<g>
</g>
<g>
</g>
<g>
</g>
<g>
</g>
<g>
</g>
<g>
</g>
</svg>
