<svg id="Capa_1" enable-background="new 0 0 512 512" height="512" viewBox="0 0 512 512" width="512" xmlns="http://www.w3.org/2000/svg"><path d="m256 476.983c-10.407 0-20.349-3.886-27.992-10.943l-178.656-164.954c-31.364-28.958-49.352-70.037-49.352-112.704 0-84.566 68.8-153.365 153.365-153.365 37.996 0 74.61 14.206 102.635 39.417 28.024-25.211 64.639-39.417 102.635-39.417 84.565 0 153.365 68.799 153.365 153.365 0 42.667-17.988 83.747-49.352 112.705l-177.702 164.043c-7.767 7.646-18.033 11.853-28.946 11.853z" fill="#ff5b6e"/><path d="m358.635 35.017c-37.996 0-74.61 14.206-102.635 39.417v402.549c10.913 0 21.179-4.207 28.946-11.854l177.702-164.043c31.364-28.958 49.352-70.037 49.352-112.704 0-84.566-68.8-153.365-153.365-153.365z" fill="#db2e43"/><path d="m307.133 262.572c-4.959 0-9.598 2.451-12.392 6.547l-28.583 41.902-32.087-111.873c-1.688-5.886-6.785-10.154-12.875-10.785-6.091-.63-11.953 2.505-14.811 7.92l-34.976 66.287h-152.212c5.952 10.777 13.196 20.869 21.637 30h139.622c5.563 0 10.67-3.08 13.267-8l21.793-41.304 30.613 106.733c1.604 5.59 6.293 9.749 12.034 10.673.798.128 1.596.191 2.388.191 4.905 0 9.567-2.412 12.389-6.548l42.119-61.747h156.107c8.44-9.131 15.685-19.223 21.637-30h-185.67z" fill="#f2f4f7"/><path d="m307.133 262.572c-4.959 0-9.598 2.451-12.392 6.547l-28.583 41.902-10.158-35.416v84.553c.701.223 1.423.398 2.163.517.798.128 1.596.191 2.388.191 4.905 0 9.567-2.412 12.389-6.548l42.119-61.747h156.107c8.44-9.131 15.685-19.223 21.637-30h-185.67z" fill="#c7e7ff"/></svg>