<?xml version="1.0"?>
<svg xmlns="http://www.w3.org/2000/svg" viewBox="0 0 512 512" width="512" height="512"><g id="Fill_out_line" data-name="Fill out line"><path d="M408,177.66c-.31006,126.76-35.76,205.53-72.3501,251.38q-3.8247,4.8-7.65991,9.13c-13.08008,14.78-26,25.49-37.21,32.81a63.70573,63.70573,0,0,1-69.65015-.06A187.79154,187.79154,0,0,1,184.01,438.18q-3.82507-4.335-7.65991-9.13C139.60986,383.01,104,303.77,104,176a151.27665,151.27665,0,0,1,24-82.01q3.75-5.835,8-11.29A151.74189,151.74189,0,0,1,256.66992,24C305.27,24.22,348.35986,47.5,376,83.35q4.24512,5.505,8,11.4A153.415,153.415,0,0,1,408,177.66Z" style="fill:#8acce7"/><path d="M360,128A104,104,0,1,1,256,24,103.488,103.488,0,0,1,360,128Z" style="fill:#f4ceaf"/><path d="M360,216a32.004,32.004,0,0,1-32,32,32.43012,32.43012,0,0,1-6.35986-.63A32.01774,32.01774,0,1,1,360,216Z" style="fill:#f4ceaf"/><path d="M408,177.66c-.43994,180.93-72.48,264.08-117.22,293.32a63.70573,63.70573,0,0,1-69.65015-.06A187.79154,187.79154,0,0,1,184.01,438.18a166.24109,166.24109,0,0,1,72.76-135.66l54.46-37.04A166.24861,166.24861,0,0,0,384,128V94.75A153.415,153.415,0,0,1,408,177.66Z" style="fill:#8acce7"/><path d="M216,216a32.02432,32.02432,0,0,1-25.64014,31.37A32.43012,32.43012,0,0,1,184,248a32,32,0,1,1,32-32Z" style="fill:#f4ceaf"/><path d="M327.99,438.17c-13.08008,14.78-26,25.49-37.21,32.81a63.70573,63.70573,0,0,1-69.65015-.06A187.79154,187.79154,0,0,1,184.01,438.18C144.73,393.79,104,312.65,104,176a151.27665,151.27665,0,0,1,24-82.01V128a166.24861,166.24861,0,0,0,72.77,137.48l54.46,37.04A166.24828,166.24828,0,0,1,327.99,438.17Z" style="fill:#8acce7"/><path d="M258.98853,16.04053c-.19458-.00513-.39039-.00586-.58521-.01-.56494-.00843-1.12793-.02661-1.69434-.02906Q256.35522,16,256.001,16h-.00684A159.99951,159.99951,0,0,0,96,176c0,81.74414,14.32715,151.82178,42.584,208.28711,27.30762,54.56885,60.69629,81.89453,78.168,93.32617a71.633,71.633,0,0,0,78.40625.0586c17.40918-11.376,50.69043-38.56885,77.99024-92.873,28.23633-56.166,42.65332-125.85205,42.84961-207.123C416.21094,89.67853,345.98438,17.65308,258.98853,16.04053ZM376,97.09906V128a158.17334,158.17334,0,0,1-14.48535,66.16382,40.22423,40.22423,0,0,0-8.82129-9.62439,111.93025,111.93025,0,0,0-2.4397-116.97962A146.19658,146.19658,0,0,1,376,97.09906ZM255.99976,293.36578l-50.73218-34.49762q-3.78846-2.5763-7.39136-5.35345A40.2192,40.2192,0,0,0,219.71,233.98822a112.53809,112.53809,0,0,0,72.58008,0,40.2192,40.2192,0,0,0,21.83374,19.52649q-3.60828,2.76919-7.39136,5.35345ZM160,128a96.10867,96.10867,0,0,1,95.99951-96h.00147c.71264,0,1.4226.01154,2.13183.0271.13794.002.27564.00464.41358.00708,1.229.03217,2.45068.0943,3.668.17249A7.99706,7.99706,0,0,0,263.99805,48a8.00917,8.00917,0,0,1,8,8v8a8.00917,8.00917,0,0,1-8,8h-20a4,4,0,0,1,0-8h4a8,8,0,1,0,0-16h-4a20,20,0,0,0,0,40h20a24.02718,24.02718,0,0,0,24-24V56a24.03666,24.03666,0,0,0-16.20679-22.694,95.99428,95.99428,0,0,1,66.54053,144.0567A39.98224,39.98224,0,0,0,288,216c0,.84113.03467,1.67395.08618,2.50232a96.38133,96.38133,0,0,1-64.17236,0C223.96533,217.674,224,216.84113,224,216a39.98224,39.98224,0,0,0-50.33179-38.63727A95.40144,95.40144,0,0,1,160,128Zm24,64a24,24,0,0,1,0,48c-.54321,0-1.08374-.0307-1.6228-.06732a158.03862,158.03862,0,0,1-22.09033-27.68732A24.01846,24.01846,0,0,1,184,192Zm145.6228,47.93268C329.08374,239.9693,328.54321,240,328,240a24,24,0,1,1,23.71313-27.75464A158.03862,158.03862,0,0,1,329.6228,239.93268ZM154.39941,73.95459q3.8877-3.87095,8.01294-7.40558a111.90566,111.90566,0,0,0-3.10571,117.99042,40.22423,40.22423,0,0,0-8.82129,9.62439A158.17334,158.17334,0,0,1,136,128V96.325A145.47994,145.47994,0,0,1,154.39941,73.95459ZM286.40625,464.27832a55.63613,55.63613,0,0,1-60.89453-.05371c-16.12207-10.54834-46.99414-35.89014-72.62012-87.09766C125.75781,322.90479,112,255.23584,112,176a144.17746,144.17746,0,0,1,8.00684-47.554,174.10171,174.10171,0,0,0,76.26464,143.65265l54.46094,37.03321a158.11368,158.11368,0,0,1,69.19287,126.01684A177.43645,177.43645,0,0,1,286.40625,464.27832Zm72.44727-86.666a270.22335,270.22335,0,0,1-24.33545,39.77118,174.04348,174.04348,0,0,0-64.70362-114.06073l45.91407-31.22412a174.092,174.092,0,0,0,76.24829-142.59887,145.67569,145.67569,0,0,1,8.02124,48.137C399.80762,256.40283,385.96484,323.68457,358.85352,377.6123Z"/><path d="M199.99805,113.37256a14.53068,14.53068,0,0,1,10.34277,4.28418,8.00018,8.00018,0,0,0,11.31445-11.31348,30.62739,30.62739,0,0,0-43.31347-.00049,7.99984,7.99984,0,1,0,11.3125,11.31446A14.533,14.533,0,0,1,199.99805,113.37256Z"/><path d="M301.6543,117.65723a14.62732,14.62732,0,0,1,20.68652-.00049,8.00018,8.00018,0,0,0,11.31445-11.31348,30.62739,30.62739,0,0,0-43.31347-.00049,7.99984,7.99984,0,1,0,11.3125,11.31446Z"/><path d="M247.999,135.99951a7.97892,7.97892,0,0,0,5.65821-2.34375,3.31189,3.31189,0,0,1,4.68359-.00049,7.99983,7.99983,0,1,0,11.31445-11.3125,19.31195,19.31195,0,0,0-27.31347.00049,8.00024,8.00024,0,0,0,5.65722,13.65625Z"/><path d="M229.46875,167.58936a84.41287,84.41287,0,0,0,53.05957,0,8,8,0,1,0-5.06055-15.17872,68.31738,68.31738,0,0,1-42.94043,0,7.99973,7.99973,0,1,0-5.05859,15.17872Z"/></g></svg>
