<?xml version="1.0" encoding="UTF-8"?>
<!-- Generator: Adobe Illustrator 23.0.3, SVG Export Plug-In . SVG Version: 6.00 Build 0)  -->
<svg version="1.1" id="Слой_1" xmlns="http://www.w3.org/2000/svg" xmlns:xlink="http://www.w3.org/1999/xlink" x="0px" y="0px" viewBox="0 0 100 100" style="enable-background:new 0 0 100 100;" xml:space="preserve">
<style type="text/css">
	.st0{fill:none;stroke:#06ADEF;stroke-width:4;stroke-linecap:round;stroke-linejoin:round;stroke-miterlimit:10;}
	.st1{fill:none;stroke:#2D3547;stroke-width:2;stroke-linecap:round;stroke-linejoin:round;stroke-miterlimit:10;}
	.st2{fill:none;stroke:#2D3547;stroke-width:3;stroke-linecap:round;stroke-linejoin:round;stroke-miterlimit:10;}
</style>
<path class="st0" d="M35.3,88.4c0-4.8,0-8.1,0-10.2c0-4.4,12.5-7.5,12.5-7.5v-3.7c0,0-2.5-2.1-3.2-3.8c-0.7-1.7-2.2-14.2,7.4-14.2  s8.4,13.6,6.4,15.8C57,66.4,56,67,56,67v3.8c0,0,12.5,2.7,12.7,6.5s0,11.1,0,11.1H35.3z"/>
<path class="st1" d="M69,71.6c1.6-0.5,0.7-0.8,0.7-0.8v-3.7c0,0-2.5-2.1-3.2-3.8c-0.7-1.7-2.2-14.2,7.4-14.2s8.4,13.6,6.4,15.8  c-1.4,1.5-2.4,2.1-2.4,2.1v3.8c0,0,12.5,2.7,12.7,6.5s0,11.1,0,11.1H73.7"/>
<path class="st1" d="M66.1,56.6c2.5,1.4,5.1-1.5,5.1-1.5c1.8,2.4,9.6,1.7,9.6,1.7"/>
<path class="st1" d="M34.9,71.8c-2-0.7-0.6-1.1-0.6-1.1v-3.7c0,0,2.5-2.1,3.2-3.8c0.7-1.7,2.2-14.2-7.4-14.2s-8.4,13.6-6.4,15.8  c1.4,1.5,2.4,2.1,2.4,2.1v3.8c0,0-12.5,2.7-12.7,6.5c-0.1,3.8,0,11.1,0,11.1h17"/>
<path class="st1" d="M37.9,56.6c-2.5,1.4-5.1-1.5-5.1-1.5c-1.8,2.4-9.6,1.7-9.6,1.7"/>
<polyline class="st1" points="69.9,70.8 73.8,73.2 78,70.8 "/>
<polyline class="st1" points="26,70.8 29.9,73.2 34.1,70.8 "/>
<path class="st2" d="M70.8,11.1h14.6c2.4,0,4.4,1.8,4.4,4v21.1c0,2.2-2,4-4.4,4H55.9l-4.4,3.3l-4-3.3H17.9c-2.4,0-4.4-1.8-4.4-4  V15.1c0-2.2,2-4,4.4-4h54.4"/>
<path class="st1" d="M23.4,21.8l0.9,1.9c0.1,0.2,0.4,0.4,0.6,0.5l2.1,0.3c0.7,0.1,1,0.9,0.5,1.4l-1.5,1.5c-0.2,0.2-0.3,0.5-0.2,0.7  l0.4,2.1c0.1,0.7-0.6,1.2-1.2,0.9l-1.9-1c-0.2-0.1-0.5-0.1-0.8,0l-1.9,1c-0.6,0.3-1.3-0.2-1.2-0.9l0.4-2.1c0-0.3,0-0.5-0.2-0.7  l-1.5-1.5c-0.5-0.5-0.2-1.3,0.5-1.4l2.1-0.3c0.3,0,0.5-0.2,0.6-0.5l0.9-1.9C22.2,21.2,23.1,21.2,23.4,21.8z"/>
<path class="st1" d="M36.9,21.8l0.9,1.9c0.1,0.2,0.4,0.4,0.6,0.5l2.1,0.3c0.7,0.1,1,0.9,0.5,1.4l-1.5,1.5c-0.2,0.2-0.3,0.5-0.2,0.7  l0.4,2.1c0.1,0.7-0.6,1.2-1.2,0.9l-1.9-1c-0.2-0.1-0.5-0.1-0.8,0l-1.9,1c-0.6,0.3-1.3-0.2-1.2-0.9l0.4-2.1c0-0.3,0-0.5-0.2-0.7  l-1.5-1.5c-0.5-0.5-0.2-1.3,0.5-1.4l2.1-0.3c0.3,0,0.5-0.2,0.6-0.5l0.9-1.9C35.7,21.2,36.6,21.2,36.9,21.8z"/>
<path class="st0" d="M51.9,19.3l1.8,3.6c0.1,0.1,0.2,0.3,0.4,0.3l4,0.6c0.4,0.1,0.6,0.6,0.3,0.9l-2.9,2.8c-0.1,0.1-0.2,0.3-0.1,0.4  l0.7,4c0.1,0.4-0.4,0.7-0.7,0.5l-3.6-1.9c-0.1-0.1-0.3-0.1-0.5,0l-3.6,1.9c-0.4,0.2-0.8-0.1-0.7-0.5l0.7-4c0-0.2,0-0.3-0.1-0.4  l-2.9-2.8c-0.3-0.3-0.1-0.8,0.3-0.9l4-0.6c0.2,0,0.3-0.1,0.4-0.3l1.8-3.6C51.2,18.9,51.7,18.9,51.9,19.3z"/>
<path class="st1" d="M68,21.8l0.9,1.9c0.1,0.2,0.4,0.4,0.6,0.5l2.1,0.3c0.7,0.1,1,0.9,0.5,1.4l-1.5,1.5c-0.2,0.2-0.3,0.5-0.2,0.7  l0.4,2.1c0.1,0.7-0.6,1.2-1.2,0.9l-1.9-1c-0.2-0.1-0.5-0.1-0.8,0l-1.9,1c-0.6,0.3-1.3-0.2-1.2-0.9l0.4-2.1c0-0.3,0-0.5-0.2-0.7  l-1.5-1.5c-0.5-0.5-0.2-1.3,0.5-1.4l2.1-0.3c0.3,0,0.5-0.2,0.6-0.5l0.9-1.9C66.8,21.2,67.7,21.2,68,21.8z"/>
<path class="st1" d="M81.4,21.8l0.9,1.9c0.1,0.2,0.4,0.4,0.6,0.5l2.1,0.3c0.7,0.1,1,0.9,0.5,1.4L84,27.4c-0.2,0.2-0.3,0.5-0.2,0.7  l0.4,2.1c0.1,0.7-0.6,1.2-1.2,0.9l-1.9-1c-0.2-0.1-0.5-0.1-0.8,0l-1.9,1c-0.6,0.3-1.3-0.2-1.2-0.9l0.4-2.1c0-0.3,0-0.5-0.2-0.7  l-1.5-1.5c-0.5-0.5-0.2-1.3,0.5-1.4l2.1-0.3c0.3,0,0.5-0.2,0.6-0.5l0.9-1.9C80.2,21.2,81.1,21.2,81.4,21.8z"/>
</svg>