<?xml version="1.0" encoding="UTF-8"?>
<!-- Generator: Adobe Illustrator 23.0.3, SVG Export Plug-In . SVG Version: 6.00 Build 0)  -->
<svg version="1.1" id="Слой_1" xmlns="http://www.w3.org/2000/svg" xmlns:xlink="http://www.w3.org/1999/xlink" x="0px" y="0px" viewBox="0 0 150 70" style="enable-background:new 0 0 150 70;" xml:space="preserve">
<style type="text/css">
	.st0{fill:#00C3FB;}
	.st1{fill:#00B2F9;}
	.st2{fill:#FFC326;}
	.st3{fill:#000A32;}
</style>
<g>
	<g>
		<g>
			<path class="st0" d="M30.4,3.8c-0.1,0-0.2,0.1-0.3,0.1c0.1,0,0.2,0.1,0.3,0.1C30.4,3.9,30.4,3.8,30.4,3.8z"/>
			<path class="st0" d="M29.5,39.4l-1.2,0.6l0.2-1.3l-1-0.9l1.3-0.2l0.6-1.2l0.2,0.4c0-7.6,0-16.3,0-22.9l-0.2-0.1l-1.2,0.6l0.2-1.3     l-1-0.9l1.3-0.2l0.6-1.2l0.2,0.4c0-3.8,0-6.5,0-7.2c-4.9,1.5-17.2,5.6-17.2,5.6c0,11.1,0,15.3,0,19.1s8.2,18.1,17.2,20.4     c0-2.5,0-5.8,0-9.5L29.5,39.4z M17.3,26.9l-1.2,0.6l0.2-1.3l-1-0.9l1.3-0.2l0.6-1.2l0.6,1.2l1.3,0.2l-1,0.9l0.2,1.3L17.3,26.9z      M22.3,35.3l-1.2-0.6l-1.2,0.6l0.2-1.3l-1-0.9l1.3-0.2l0.6-1.2l0.6,1.2l1.3,0.2l-1,0.9L22.3,35.3z M22.1,18.1l0.2,1.3l-1.2-0.6     l-1.2,0.6l0.2-1.3l-1-0.9l1.3-0.2l0.6-1.2l0.6,1.2l1.3,0.2L22.1,18.1z"/>
			<path class="st1" d="M30.4,4c-0.1,0-0.2-0.1-0.3-0.1c-0.1,0-0.2-0.1-0.3-0.1c0,0,0,0.1,0,0.2c0,0.7,0,3.4,0,7.2l0.4,0.8l1.3,0.2     l-1,0.9l0.2,1.3l-1-0.5c0,6.6,0,15.3,0,22.9l0.4,0.8l1.3,0.2l-1,0.9l0.2,1.3l-1-0.5c0,3.7,0,7,0,9.5c9-2.2,17.7-16.5,17.7-20.4     s0-8,0-19.1C47.4,9.6,35.3,5.5,30.4,4z M39.4,35.3l-1.2-0.6L37,35.3l0.2-1.3l-1-0.9l1.3-0.2l0.6-1.2l0.6,1.2l1.3,0.2l-1,0.9     L39.4,35.3z M39.1,18.1l0.2,1.3l-1.2-0.6L37,19.4l0.2-1.3l-1-0.9l1.3-0.2l0.6-1.2l0.6,1.2l1.3,0.2L39.1,18.1z M43.4,27.6     l-1.2-0.6L41,27.6l0.2-1.3l-1-0.9l1.3-0.2l0.6-1.2l0.6,1.2l1.3,0.2l-1,0.9L43.4,27.6z"/>
			<polygon class="st2" points="28.9,12 27.6,12.2 28.6,13.1 28.3,14.5 29.5,13.8 29.7,14 30.7,14.5 30.5,13.1 31.5,12.2 30.1,12      29.7,11.2 29.5,10.8    "/>
			<polygon class="st2" points="28.9,37.6 27.6,37.8 28.6,38.7 28.3,40.1 29.5,39.4 29.7,39.6 30.7,40.1 30.5,38.7 31.5,37.8      30.1,37.6 29.7,36.8 29.5,36.4    "/>
			<polygon class="st2" points="42.8,25.1 42.2,23.9 41.6,25.1 40.3,25.3 41.3,26.2 41,27.6 42.2,26.9 43.4,27.6 43.2,26.2      44.2,25.3    "/>
			<polygon class="st2" points="19.2,25.3 17.8,25.1 17.3,23.9 16.7,25.1 15.3,25.3 16.3,26.2 16.1,27.6 17.3,26.9 18.4,27.6      18.2,26.2    "/>
			<polygon class="st2" points="21.1,15.7 20.5,17 19.2,17.1 20.1,18.1 19.9,19.4 21.1,18.8 22.3,19.4 22.1,18.1 23,17.1 21.7,17         "/>
			<polygon class="st2" points="38.2,15.7 37.6,17 36.2,17.1 37.2,18.1 37,19.4 38.2,18.8 39.4,19.4 39.1,18.1 40.1,17.1 38.8,17         "/>
			<polygon class="st2" points="21.7,32.9 21.1,31.7 20.5,32.9 19.2,33.1 20.1,34 19.9,35.3 21.1,34.7 22.3,35.3 22.1,34 23,33.1         "/>
			<polygon class="st2" points="38.8,32.9 38.2,31.7 37.6,32.9 36.2,33.1 37.2,34 37,35.3 38.2,34.7 39.4,35.3 39.1,34 40.1,33.1         "/>
		</g>
		<g>
			<path class="st3" d="M80.7,18v1.6c0,2.9-0.9,5.2-2.8,7s-4.2,2.7-7.1,2.7c-3.1,0-5.7-1-7.7-3c-2-2-3.1-4.5-3.1-7.4     c0-2.9,1-5.4,3-7.5c2-2,4.5-3.1,7.5-3.1c3.8,0,7.1,1.8,8.8,4.7l-3.4,2c-0.9-1.6-3-2.8-5.4-2.8c-1.9,0-3.5,0.6-4.7,1.9     c-1.2,1.2-1.8,2.8-1.8,4.7c0,1.9,0.6,3.5,1.9,4.7c1.3,1.2,2.9,1.8,5,1.8c3.1,0,5.2-1.4,5.9-3.8h-6.1V18H80.7z"/>
			<path class="st3" d="M92.2,8.7c2.8,0,5.1,1,6.9,2.9c1.9,1.9,2.8,4.3,2.8,7.2S101,24,99.1,26c-1.8,1.9-4.1,2.9-6.9,2.9h-8V8.7     H92.2z M92.2,25.1c1.8,0,3.2-0.6,4.3-1.7c1.1-1.2,1.6-2.7,1.6-4.5s-0.5-3.4-1.6-4.5c-1.1-1.2-2.5-1.8-4.3-1.8h-4v12.5H92.2z"/>
			<path class="st3" d="M113,8.7c1.9,0,3.6,0.7,4.9,2c1.3,1.3,2,2.9,2,4.8s-0.7,3.5-2,4.8c-1.3,1.3-3,2-4.9,2h-3.5v6.6h-4V8.7H113z      M113,18.5c1.7,0,2.9-1.3,2.9-3.1c0-1.8-1.2-3.1-2.9-3.1h-3.5v6.1H113z"/>
			<path class="st3" d="M134.2,28.9l-4.1-7h-3v7h-4V8.7h8.1c1.9,0,3.5,0.7,4.7,2c1.3,1.3,2,2.9,2,4.7c0,2.5-1.6,4.8-3.9,5.9l4.5,7.6     H134.2z M127.1,12.4v6h4.1c1.5,0,2.7-1.4,2.7-3c0-1.6-1.2-3-2.7-3H127.1z"/>
		</g>
		<g>
			<path class="st3" d="M60.7,41.5c-0.8-0.8-1.2-1.8-1.2-3s0.4-2.2,1.2-3c0.8-0.8,1.8-1.2,3.1-1.2c1.5,0,2.8,0.8,3.5,2l-0.9,0.6     c-0.5-0.9-1.5-1.5-2.6-1.5c-0.9,0-1.7,0.3-2.3,0.9s-0.9,1.4-0.9,2.3c0,0.9,0.3,1.7,0.9,2.3s1.4,0.9,2.3,0.9     c1.1,0,2.1-0.6,2.6-1.5l0.9,0.5c-0.3,0.6-0.8,1.1-1.5,1.5s-1.3,0.5-2.1,0.5C62.5,42.7,61.5,42.3,60.7,41.5z"/>
			<path class="st3" d="M71.1,35.5c0.8-0.8,1.8-1.2,3-1.2s2.2,0.4,3,1.2c0.8,0.8,1.2,1.8,1.2,3s-0.4,2.2-1.2,3     c-0.8,0.8-1.8,1.2-3,1.2s-2.2-0.4-3-1.2s-1.2-1.8-1.2-3S70.3,36.3,71.1,35.5z M76.3,36.2c-0.6-0.6-1.3-0.9-2.2-0.9     s-1.7,0.3-2.3,0.9c-0.6,0.6-0.9,1.4-0.9,2.3s0.3,1.7,0.9,2.3c0.6,0.6,1.4,0.9,2.3,0.9s1.7-0.3,2.2-0.9c0.6-0.6,0.9-1.4,0.9-2.3     S77,36.8,76.3,36.2z"/>
			<path class="st3" d="M89.1,34.4v8.2H88v-6.4l-2.7,4.5h-0.1l-2.7-4.5v6.4h-1.1v-8.2h1.2l2.6,4.3l2.6-4.3H89.1z"/>
			<path class="st3" d="M95.6,34.4c0.8,0,1.4,0.3,1.9,0.8c0.5,0.5,0.8,1.1,0.8,1.9c0,0.7-0.3,1.4-0.8,1.9s-1.1,0.8-1.9,0.8h-1.9v2.9     h-1.1v-8.2H95.6z M95.6,38.6c0.5,0,0.8-0.2,1.1-0.5c0.3-0.3,0.4-0.7,0.4-1.2c0-0.9-0.7-1.6-1.6-1.6h-1.9v3.2H95.6z"/>
			<path class="st3" d="M102.4,41.6h3.5v1h-4.6v-8.2h1.1V41.6z"/>
			<path class="st3" d="M108.8,34.4h1.1v8.2h-1.1V34.4z"/>
			<path class="st3" d="M118.8,42.6l-0.7-1.8h-3.7l-0.7,1.8h-1.2l3.1-8.2h1.2l3.1,8.2H118.8z M114.8,39.7h2.9l-1.5-4L114.8,39.7z"/>
			<path class="st3" d="M127.8,34.4h1.1v8.2H128l-4.2-6.1v6.1h-1.1v-8.2h0.9l4.2,6.1V34.4z"/>
			<path class="st3" d="M137.6,34.4v1h-2.4v7.2h-1.1v-7.2h-2.4v-1H137.6z"/>
		</g>
		<g>
			<path class="st3" d="M14.5,57.8c0.8,0,1.5,0.3,2,0.8s0.8,1.2,0.8,2s-0.3,1.4-0.8,2s-1.2,0.8-2,0.8H13V66h-1.6v-8.2H14.5z      M14.5,61.8c0.7,0,1.2-0.5,1.2-1.2c0-0.7-0.5-1.2-1.2-1.2H13v2.5H14.5z"/>
			<path class="st3" d="M23.3,66l-1.7-2.8h-1.2V66h-1.6v-8.2h3.3c0.8,0,1.4,0.3,1.9,0.8s0.8,1.2,0.8,1.9c0,1-0.6,2-1.6,2.4L25,66     H23.3z M20.4,59.3v2.4h1.7c0.6,0,1.1-0.6,1.1-1.2s-0.5-1.2-1.1-1.2H20.4z"/>
			<path class="st3" d="M26.5,57.8h1.6V66h-1.6V57.8z"/>
			<path class="st3" d="M32.1,66l-2.8-8.2h1.8l2,6.3l2-6.3h1.8L34.1,66H32.1z"/>
			<path class="st3" d="M42.9,66l-0.5-1.5h-3.3L38.7,66h-1.7l2.9-8.2h2l2.9,8.2H42.9z M39.7,63h2.2l-1.1-3.4L39.7,63z"/>
			<path class="st3" d="M46.5,65c-0.8-0.8-1.2-1.8-1.2-3s0.4-2.2,1.2-3c0.8-0.8,1.8-1.2,3.1-1.2c1.5,0,2.8,0.8,3.5,1.9l-1.4,0.8     c-0.4-0.7-1.2-1.2-2.1-1.2c-0.8,0-1.4,0.2-1.9,0.8c-0.5,0.5-0.7,1.1-0.7,1.9c0,0.8,0.2,1.4,0.7,1.9c0.5,0.5,1.1,0.8,1.9,0.8     c0.9,0,1.7-0.4,2.1-1.2l1.4,0.8c-0.7,1.2-2,1.9-3.5,1.9C48.3,66.2,47.3,65.8,46.5,65z"/>
			<path class="st3" d="M60.9,57.8l-2.8,5V66h-1.6v-3.2l-2.8-5h1.8l1.8,3.4l1.8-3.4H60.9z"/>
			<path class="st3" d="M68.6,57.8c0.8,0,1.5,0.3,2,0.8s0.8,1.2,0.8,2s-0.3,1.4-0.8,2s-1.2,0.8-2,0.8h-1.4V66h-1.6v-8.2H68.6z      M68.6,61.8c0.7,0,1.2-0.5,1.2-1.2c0-0.7-0.5-1.2-1.2-1.2h-1.4v2.5H68.6z"/>
			<path class="st3" d="M77.4,66l-1.7-2.8h-1.2V66h-1.6v-8.2h3.3c0.8,0,1.4,0.3,1.9,0.8s0.8,1.2,0.8,1.9c0,1-0.6,2-1.6,2.4l1.8,3.1     H77.4z M74.5,59.3v2.4h1.7c0.6,0,1.1-0.6,1.1-1.2s-0.5-1.2-1.1-1.2H74.5z"/>
			<path class="st3" d="M84.4,66.2c-1.2,0-2.2-0.4-3-1.2c-0.8-0.8-1.2-1.8-1.2-3s0.4-2.2,1.2-3c0.8-0.8,1.8-1.2,3-1.2s2.2,0.4,3,1.2     c0.8,0.8,1.2,1.8,1.2,3s-0.4,2.2-1.2,3C86.6,65.8,85.6,66.2,84.4,66.2z M84.4,64.6c0.8,0,1.4-0.2,1.9-0.8s0.8-1.1,0.8-1.9     s-0.3-1.4-0.8-1.9s-1.1-0.8-1.9-0.8S83,59.5,82.5,60s-0.8,1.1-0.8,1.9s0.3,1.4,0.8,1.9S83.6,64.6,84.4,64.6z"/>
			<path class="st3" d="M95.2,57.8v1.5H93V66h-1.6v-6.7h-2.2v-1.5H95.2z"/>
			<path class="st3" d="M98.2,64.5h3.5V66h-5.1v-8.2h5v1.5h-3.4v1.7h3.1v1.5h-3.1V64.5z"/>
			<path class="st3" d="M104,65c-0.8-0.8-1.2-1.8-1.2-3s0.4-2.2,1.2-3c0.8-0.8,1.8-1.2,3.1-1.2c1.5,0,2.8,0.8,3.5,1.9l-1.4,0.8     c-0.4-0.7-1.2-1.2-2.1-1.2c-0.8,0-1.4,0.2-1.9,0.8c-0.5,0.5-0.7,1.1-0.7,1.9c0,0.8,0.2,1.4,0.7,1.9c0.5,0.5,1.1,0.8,1.9,0.8     c0.9,0,1.7-0.4,2.1-1.2l1.4,0.8c-0.7,1.2-2,1.9-3.5,1.9C105.9,66.2,104.8,65.8,104,65z"/>
			<path class="st3" d="M117.5,57.8v1.5h-2.2V66h-1.6v-6.7h-2.2v-1.5H117.5z"/>
			<path class="st3" d="M118.9,57.8h1.6V66h-1.6V57.8z"/>
			<path class="st3" d="M126.3,66.2c-1.2,0-2.2-0.4-3-1.2c-0.8-0.8-1.2-1.8-1.2-3s0.4-2.2,1.2-3c0.8-0.8,1.8-1.2,3-1.2     s2.2,0.4,3,1.2c0.8,0.8,1.2,1.8,1.2,3s-0.4,2.2-1.2,3C128.5,65.8,127.5,66.2,126.3,66.2z M126.3,64.6c0.8,0,1.4-0.2,1.9-0.8     s0.8-1.1,0.8-1.9s-0.3-1.4-0.8-1.9s-1.1-0.8-1.9-0.8s-1.4,0.3-1.9,0.8s-0.8,1.1-0.8,1.9s0.3,1.4,0.8,1.9S125.6,64.6,126.3,64.6z"/>
			<path class="st3" d="M137,57.8h1.6V66h-1.2l-3.5-5v5h-1.6v-8.2h1.2l3.5,5V57.8z"/>
		</g>
	</g>
</g>
</svg>