<?xml version="1.0" encoding="UTF-8"?>
<!-- Generator: Adobe Illustrator 23.0.3, SVG Export Plug-In . SVG Version: 6.00 Build 0)  -->
<svg version="1.1" id="Слой_1" xmlns="http://www.w3.org/2000/svg" xmlns:xlink="http://www.w3.org/1999/xlink" x="0px" y="0px" viewBox="0 0 150 70" style="enable-background:new 0 0 150 70;" xml:space="preserve">
<style type="text/css">
	.st0{fill:#00B2F9;}
	.st1{fill:#444444;}
</style>
<g id="Layer_2">
	<g id="Layer_1-2">
		<path class="st0" d="M33.7,9.9c-2.4-0.6-4,3.5-4,3.5v7.1c9.1,0.7,9-1.8,9-1.8c8.7-0.1,14.2-7.1,14.2-7.1    C44.7,13.8,36.1,10.4,33.7,9.9z"/>
		<path class="st0" d="M25.1,20.4v-7.1c0,0-1.6-4-4-3.5c-2.4,0.6-11.1,4-19.1,1.7c0,0,5.4,7,14.2,7.1C16.1,18.7,16.1,21.1,25.1,20.4    z"/>
		<path class="st0" d="M26.2,10.1v18.6c0.4,0,0.8,0.1,1.2,0.1c0.4,0,0.8-0.1,1.2-0.1V10.1c1.7-0.7,2.5-2.6,1.8-4.2s-2.6-2.5-4.2-1.8    c-1.7,0.7-2.5,2.6-1.8,4.2C24.7,9.1,25.4,9.8,26.2,10.1L26.2,10.1z"/>
		<path class="st0" d="M27.4,38.1c0.1,0,0.2-0.1,0.3-0.1c0.3-0.1,0.6-0.2,0.9-0.4V34c-0.4-0.1-0.8-0.1-1.2-0.2    c-0.4,0-0.8,0.1-1.2,0.2v3.6c0.3,0.2,0.6,0.3,0.9,0.4C27.2,38.1,27.3,38.1,27.4,38.1z"/>
		<path class="st0" d="M28.6,51.4L28.6,51.4l0-0.7c-0.2-0.1-0.5-0.2-0.7-0.3c-0.2,0-0.3-0.1-0.5-0.1c-0.2,0-0.3,0.1-0.5,0.1    c-0.3,0.1-0.5,0.2-0.8,0.3v0.6l0.1,0.1c0.4,0.2,0.8,0.4,1.2,0.6C27.8,51.8,28.2,51.6,28.6,51.4z"/>
		<path class="st0" d="M27.4,63.1c-0.4,0.1-0.7,0.2-1.1,0.3l-0.1,0l0.2,1.5c0.2,0.5,0.4,1.2,1,1.2c0.7,0,0.8-0.4,1-1.2l0.2-1.5    l-0.1,0C28.1,63.3,27.8,63.2,27.4,63.1z"/>
		<path class="st0" d="M28.6,57.4c0-0.2-0.1-0.3-0.2-0.4c-0.3-0.3-0.6-0.6-1-0.7c-0.4,0.2-0.7,0.4-1,0.7c-0.1,0.1-0.2,0.3-0.2,0.4    c0,0,0,0.1,0,0.1c0,0,0,0,0,0v0.1v0.2c0,0,0,0.1,0,0.1c0.1,0.3,0.3,0.6,0.6,0.8c0.2,0.2,0.4,0.3,0.6,0.4c0.2-0.1,0.4-0.3,0.6-0.4    c0.3-0.2,0.5-0.5,0.6-0.8c0,0,0-0.1,0-0.1v-0.2v-0.1C28.6,57.5,28.6,57.5,28.6,57.4C28.6,57.5,28.6,57.5,28.6,57.4z"/>
		<path class="st0" d="M27.4,46.2L27.4,46.2L28,46c0.2,0,0.4-0.1,0.6-0.2v-2.4c-0.4-0.2-0.8-0.4-1.2-0.5c-0.4,0.2-0.8,0.3-1.2,0.6    v2.4C26.5,46,26.9,46.1,27.4,46.2L27.4,46.2z"/>
		<path class="st0" d="M29.8,57.7C29.8,57.7,29.8,57.7,29.8,57.7V58c0,0.1,0,0.1,0,0.2c0,0,0,0,0,0c-0.2,0.6-0.5,1.1-1,1.5l-0.1,0.1    c0.3,0.1,0.5,0.2,0.7,0.2s0.4,0.1,0.6,0.2c0.5-0.5,0.8-1.1,0.9-1.7c0-0.1,0-0.3,0.1-0.4l0-0.4v-0.3c0-0.1,0-0.2,0-0.4    c-0.1-0.5-0.3-1-0.6-1.4c-0.1-0.2-0.3-0.4-0.4-0.5c-0.5,0.2-0.9,0.4-1.3,0.6c0.3,0.2,0.5,0.4,0.7,0.7c0.2,0.3,0.3,0.6,0.4,0.9    c0,0.1,0,0.2,0,0.2c0,0,0,0.1,0,0.1C29.8,57.6,29.8,57.6,29.8,57.7L29.8,57.7z"/>
		<path class="st0" d="M39.8,26l0-0.4c-0.1-0.5-0.2-1-0.4-1.4c-0.2-0.5-0.6-0.9-1-1.2c-0.7-0.5-1.5-0.8-2.3-0.9    c-0.6-0.1-1.1,0-1.7,0l-0.3,0c-1.1-0.3-2.8-0.5-3.9,1.1c-1.8,2.6,0.7,3.5,1.4,3.4c0.6-0.1,2.4-0.4,3.4-1.6c0.3,0,0.6,0,0.8,0    c0.3,0,0.5,0.1,0.7,0.2c0.1,0.1,0.2,0.1,0.3,0.2l0,0.1c0.1,0.1,0.1,0.2,0.1,0.4c0,0.1,0.1,0.2,0.1,0.3c0,0,0,0,0,0s0,0.1,0,0.1    v0.2c0,0.1,0,0.1,0,0.2c0,0.1,0,0.1-0.1,0.2c0,0.1-0.1,0.2-0.2,0.3c-0.3,0.4-0.6,0.7-1,0.9c-0.1,0.1-0.3,0.2-0.5,0.3    c-1.4,0.6-2.8,1.1-4.3,1.3l-0.7,0.1l-0.7,0.1c-0.3,0-0.6,0.1-0.9,0.1c-0.3,0-0.8,0.1-1.2,0.1l-0.2,0c-0.4,0-0.7,0.1-1.1,0.2    c-0.8,0.1-1.6,0.4-2.4,0.6c-0.6,0.2-1.2,0.5-1.7,0.9L22,31.9c-0.2,0.2-0.4,0.3-0.6,0.5c-0.2,0.2-0.3,0.3-0.5,0.5    c-0.1,0.2-0.2,0.3-0.3,0.5c-0.2,0.3-0.3,0.6-0.4,0.9c0,0.1,0,0.1,0,0.2s0,0.2,0,0.3v0.2l0,0l0,0.3c0,0,0,0.1,0,0.1    c0,0,0,0.1,0,0.1c0,0.2,0.1,0.4,0.1,0.6c0,0.1,0,0.1,0.1,0.2c0,0.1,0.1,0.2,0.1,0.3v0c0.1,0.3,0.3,0.7,0.5,0.9    c0.7,0.9,1.5,1.6,2.4,2.2c0.7-0.5,1.5-0.9,2.2-1.2c-0.2-0.1-0.4-0.2-0.6-0.3c-0.9-0.5-1.6-1.1-2.2-1.9c-0.4-0.5-0.5-1.1-0.3-1.7    c0.1-0.2,0.1-0.3,0.2-0.5h-0.1c0.3-0.4,0.7-0.7,1.1-0.9l0.1,0l0,0l0.2-0.1l0.1,0c0.1-0.1,0.2-0.1,0.4-0.1h0l0,0    C24.8,33,25,33,25.2,33c0.3-0.1,0.7-0.2,1-0.2c0.2,0,0.4-0.1,0.6-0.1s0.4,0,0.6-0.1h0.1l1.1-0.1c0.7-0.1,1.4-0.1,2-0.2    c0.7-0.1,1.5-0.2,2.2-0.4c0.3-0.1,0.5-0.1,0.8-0.2c0.2-0.1,0.5-0.1,0.7-0.2c0.7-0.2,1.5-0.5,2.2-0.8c1-0.4,1.8-1.1,2.5-1.9    c0-0.1,0.1-0.1,0.1-0.2c0.3-0.4,0.5-0.9,0.6-1.4v-0.1c0-0.1,0-0.3,0.1-0.4l0-0.7L39.8,26C39.8,26,39.8,26,39.8,26z"/>
		<path class="st0" d="M32.7,43.5c-0.3-0.7-0.7-1.3-1.2-1.8c-0.1-0.1-0.2-0.2-0.3-0.3c-0.6,0.3-1.2,0.6-1.8,0.8    c-0.1,0-0.2,0.1-0.3,0.1c0.7,0.3,1.3,0.9,1.7,1.5c0.1,0.1,0.1,0.2,0.1,0.3l0,0v0c0,0,0,0,0,0.1c0,0.1,0.1,0.2,0.1,0.4l0,0    c0,0.2,0,0.5-0.1,0.7l0,0c0,0.1,0,0.1-0.1,0.2c0,0.1,0,0.1-0.1,0.2c0,0,0,0.1,0,0.1l0,0.1l0,0v0c0,0,0,0.1-0.1,0.1    c-0.2,0.3-0.6,0.6-0.9,0.8l-0.1,0c-0.1,0-0.2,0.1-0.3,0.1l0,0c-0.2,0.1-0.4,0.1-0.6,0.2l-0.1,0l0,0c-0.3,0.1-0.6,0.1-0.9,0.2l0,0    l-0.3,0.1c-0.4,0.1-0.8,0.2-1.2,0.3l0,0c-0.6,0.2-1.1,0.4-1.6,0.7l-0.1,0.1c-0.2,0.1-0.3,0.2-0.4,0.4c-0.1,0.1-0.2,0.2-0.3,0.4    c0,0,0,0.1-0.1,0.1c-0.2,0.3-0.3,0.6-0.4,0.9c0,0.2-0.1,0.3-0.1,0.5v0.4v0.1v0.2c0,0.1,0,0.2,0.1,0.3c0,0.2,0.1,0.4,0.2,0.5    c0.3,0.5,0.7,0.9,1.2,1.3c0.4-0.3,0.9-0.6,1.4-0.9c-0.2-0.1-0.3-0.2-0.4-0.3c-0.3-0.2-0.6-0.5-0.8-0.8v0c0,0,0,0,0-0.1    c0-0.1,0-0.1,0-0.2c0,0,0,0,0-0.1c0,0,0,0,0,0s0,0,0-0.1v0l0,0c0,0,0,0,0,0c0-0.1,0-0.1,0-0.2c0-0.1,0-0.1,0-0.2v0    c0,0,0-0.1,0-0.1c0.1-0.3,0.2-0.5,0.4-0.6c0,0,0.1-0.1,0.1-0.1c0.2-0.1,0.4-0.2,0.7-0.3l0.1,0c0.1-0.1,0.3-0.1,0.5-0.1    c0.2-0.1,0.5-0.1,0.8-0.2L28,49l0.7-0.1c0.4-0.1,0.8-0.2,1.3-0.3c0.1,0,0.2-0.1,0.4-0.1c0.2-0.1,0.4-0.2,0.6-0.3    c0.2-0.1,0.4-0.2,0.5-0.3c0.1-0.1,0.2-0.1,0.3-0.2l0.2-0.2c0.1-0.1,0.1-0.2,0.2-0.3c0-0.1,0.1-0.1,0.1-0.2l0.2-0.3    c0.2-0.3,0.3-0.6,0.4-1c0.1-0.5,0.2-1,0.1-1.5C32.9,43.9,32.8,43.7,32.7,43.5z"/>
		<path class="st0" d="M24.4,61.5c-0.4,0.1-0.7,0.1-0.9,0.2c-0.3,0-0.6,0.1-0.8,0.1h0c-0.1,0-0.3,0.1-0.3,0.2    c-0.1,0.1-0.1,0.2-0.1,0.4c0,0.3,0.2,0.5,0.5,0.5h0l0.2,0l0.6-0.1c0.7-0.1,1.3-0.2,2-0.3c-0.4-0.2-0.8-0.5-1.1-0.7L24.4,61.5z"/>
		<path class="st0" d="M32.1,61.7L32.1,61.7c-0.2,0-0.4,0-0.8-0.1c-0.3,0-0.6-0.1-0.9-0.2c-0.2,0-0.5-0.1-0.8-0.2    c-0.2,0-0.3-0.1-0.5-0.1l-0.3-0.1L28.6,61c-0.4-0.1-0.8-0.3-1.2-0.5c-0.2-0.1-0.5-0.2-0.7-0.4c-0.2-0.1-0.4-0.2-0.5-0.4l-0.1-0.1    L26,59.7c-0.5-0.4-0.9-0.9-1-1.5v0c0-0.1,0-0.1,0-0.2v-0.3c0-0.1,0-0.2,0-0.2c0-0.1,0-0.2,0-0.3c0.1-0.3,0.2-0.6,0.4-0.9    c0.2-0.2,0.4-0.5,0.7-0.6l0.1-0.1c0.2-0.1,0.3-0.2,0.5-0.3c0.2-0.1,0.4-0.2,0.6-0.3l0.1,0c0.2-0.1,0.5-0.2,0.7-0.3l0.5-0.2    l0.4-0.2c0.2-0.1,0.4-0.2,0.6-0.3c0.1-0.1,0.3-0.1,0.4-0.2l0.2-0.1c0.5-0.3,0.9-0.8,1.2-1.3c0.1-0.2,0.1-0.3,0.2-0.5    c0-0.1,0-0.2,0.1-0.3v-0.2v-0.1l0-0.4c0-0.2,0-0.3-0.1-0.5c-0.1-0.3-0.2-0.6-0.3-0.8c-0.3,0.1-0.6,0.2-0.9,0.3    c-0.2,0.1-0.5,0.1-0.7,0.2c0.2,0.2,0.4,0.4,0.4,0.6c0,0,0,0.1,0,0.1v0c0,0.1,0,0.1,0,0.2c0,0.1,0,0.1,0,0.2l0,0l0,0c0,0,0,0,0,0    s0,0,0,0.1v0.1v0.1c0,0.1,0,0.2-0.1,0.2l0,0c-0.2,0.3-0.4,0.6-0.8,0.8c-0.1,0.1-0.3,0.2-0.4,0.3l-0.2,0.1    c-0.2,0.1-0.3,0.2-0.5,0.2l-0.5,0.2l-0.2,0.1c-0.2,0.1-0.5,0.2-0.7,0.3c-0.2,0.1-0.4,0.2-0.6,0.3c-0.1,0.1-0.2,0.1-0.4,0.2    c-0.2,0.1-0.4,0.3-0.6,0.4c-0.2,0.1-0.3,0.3-0.5,0.4c-0.2,0.2-0.3,0.3-0.4,0.5C24,56,23.8,56.5,23.8,57c0,0.1,0,0.2,0,0.3v0.3    l0,0.4c0,0.1,0,0.3,0.1,0.4c0.2,0.6,0.5,1.2,0.9,1.7c0.2,0.2,0.3,0.3,0.5,0.5l0,0c0.2,0.2,0.4,0.3,0.7,0.4l0.2,0.1    c0.3,0.2,0.6,0.3,1,0.5l0.3,0.1c0.3,0.1,0.6,0.2,0.9,0.3l0.3,0.1l0.2,0.1l0.4,0.1c0.7,0.1,1.3,0.3,2,0.3l0.6,0.1l0.3,0    c0.3,0,0.5-0.2,0.5-0.5C32.6,62,32.4,61.7,32.1,61.7L32.1,61.7z"/>
		<path class="st0" d="M34.6,34.9c0-0.1,0-0.2,0-0.3c0-0.1,0-0.1,0-0.2c-0.1-0.3-0.2-0.6-0.4-0.9c-0.1-0.2-0.2-0.3-0.3-0.5    c-1,0.2-2,0.4-3,0.5c0.5,0.2,0.8,0.5,1.2,0.9c0.1,0.1,0.2,0.3,0.2,0.4c0.2,0.5,0.1,1.1-0.2,1.6c-0.4,0.8-1.2,1.5-2.4,2.1    c-0.2,0.1-0.4,0.2-0.6,0.3c-0.1,0.1-0.3,0.1-0.4,0.2l-0.3,0.1l0,0c-0.3,0.1-0.5,0.2-0.8,0.3l0,0c-0.2,0.1-0.5,0.2-0.7,0.3    l-0.4,0.2c-0.5,0.2-0.9,0.4-1.4,0.7c-0.2,0.1-0.4,0.2-0.6,0.4c-0.2,0.1-0.4,0.3-0.5,0.4c-0.1,0.1-0.2,0.2-0.3,0.3    c-0.5,0.5-1,1.1-1.2,1.8c-0.1,0.2-0.1,0.5-0.2,0.7c-0.1,0.5,0,1,0.1,1.5c0.1,0.3,0.2,0.7,0.4,1l0.1,0.1v0l0.1,0.1    c0,0.1,0.1,0.1,0.1,0.2c0.1,0.1,0.1,0.2,0.2,0.3l0.2,0.2c0.1,0.1,0.2,0.1,0.2,0.2c0.1-0.1,0.2-0.2,0.4-0.3    c0.4-0.3,0.9-0.5,1.4-0.7c-0.7-0.3-1.2-0.9-1.3-1.6c-0.1-0.3,0-0.7,0.1-1c0.1-0.4,0.4-0.8,0.7-1.1c0.3-0.3,0.7-0.6,1.1-0.8    c0.1-0.1,0.3-0.1,0.4-0.2c0.1-0.1,0.2-0.1,0.4-0.2c0.3-0.1,0.6-0.2,0.8-0.3l0.1,0c0.2-0.1,0.3-0.1,0.5-0.2    c0.2-0.1,0.4-0.1,0.7-0.2c0.1,0,0.3-0.1,0.4-0.1c0.3-0.1,0.7-0.3,1-0.4c0.2-0.1,0.4-0.2,0.6-0.3h0c0.2-0.1,0.4-0.2,0.6-0.3    c1-0.5,1.8-1.3,2.5-2.2c0.2-0.3,0.4-0.6,0.5-0.9v0c0.1-0.1,0.1-0.2,0.1-0.4c0-0.1,0-0.1,0.1-0.2c0.1-0.2,0.1-0.4,0.1-0.6    c0,0,0-0.1,0-0.1c0,0,0-0.1,0-0.1l0-0.3c0,0,0,0,0,0L34.6,34.9z"/>
		<path class="st0" d="M21.4,30.8c0.6-0.4,1.3-0.8,2-1c0.2-0.1,0.3-0.1,0.5-0.2c-1.5-0.2-2.9-0.7-4.3-1.3c-0.2-0.1-0.3-0.2-0.5-0.3    c-0.4-0.2-0.7-0.5-1-0.9C18,27,18,26.9,17.9,26.8c0-0.1,0-0.1-0.1-0.2c0-0.1,0-0.1,0-0.2c0,0,0,0,0,0v-0.1c0,0,0-0.1,0-0.1    s0,0,0,0v0c0-0.1,0-0.1,0.1-0.2c0-0.1,0.1-0.3,0.1-0.4l0-0.1c0.1-0.1,0.1-0.2,0.2-0.2c0.2-0.1,0.5-0.2,0.8-0.2c0.1,0,0.2,0,0.3,0    c0.2,0,0.4,0,0.6,0c1,1.3,2.8,1.5,3.4,1.6c0.7,0.1,3.2-0.8,1.4-3.4c-1.2-1.6-2.8-1.5-3.9-1.1l-0.3,0c-0.6-0.1-1.1-0.1-1.7,0    c-0.8,0.1-1.6,0.4-2.3,0.9c-0.4,0.3-0.7,0.7-1,1.2c-0.2,0.5-0.4,0.9-0.4,1.4l0,0.5l0,0.7c0,0.1,0,0.3,0.1,0.4c0,0,0,0,0,0.1    c0.1,0.3,0.1,0.5,0.3,0.7c0.1,0.3,0.3,0.6,0.5,0.8c0.7,0.8,1.5,1.5,2.5,1.9c0.7,0.3,1.4,0.6,2.2,0.8C20.8,31.3,21.1,31,21.4,30.8z    "/>
		<path class="st1" d="M58.6,44.5v-9.2h-9.3v9.2h-5V21.6h5v9.1h9.3v-9.1h5v22.9H58.6z"/>
		<path class="st1" d="M69.4,44.5V21.6h5v22.9H69.4z"/>
		<path class="st1" d="M97.6,33.1c-0.5,1-1.1,1.8-2,2.5c-0.9,0.7-1.9,1.2-2.9,1.5c-1.2,0.3-2.4,0.5-3.6,0.5h-3.8v6.9h-5V21.6h9.4    c1.3,0,2.5,0.2,3.7,0.6c1,0.3,2,0.9,2.7,1.6c0.8,0.7,1.3,1.6,1.7,2.5c0.4,1,0.6,2.1,0.6,3.2v0.1C98.3,30.8,98.1,32,97.6,33.1z     M93.2,29.6c0-1.1-0.4-2-1.1-2.6c-0.7-0.6-1.7-0.9-3-0.9h-3.9v7h4c1.3,0,2.2-0.3,2.9-1C92.8,31.5,93.2,30.6,93.2,29.6L93.2,29.6z"/>
		<path class="st1" d="M116.5,44.5l-2.1-5.1h-9.7l-2.1,5.1h-5.1l9.8-23.1h4.6l9.8,23.1H116.5z M109.5,27.5l-3,7.4h6.1L109.5,27.5z"/>
		<path class="st1" d="M142.3,44.5l-2.1-5.1h-9.7l-2.1,5.1h-5.1l9.8-23.1h4.6l9.8,23.1L142.3,44.5z M135.4,27.5l-3,7.4h6.1    L135.4,27.5z"/>
		<path class="st1" d="M43.9,54.9L43.9,54.9c0-3.4,2.5-6.2,6-6.2c2.1,0,3.4,0.8,4.6,1.9l-0.6,0.6c-1-1-2.2-1.8-4-1.8    c-2.9,0-5,2.3-5,5.3v0c0,3,2.2,5.4,5.1,5.4c1.7,0,2.9-0.7,4.1-1.9l0.6,0.6C53.3,60.2,52,61,49.8,61C46.4,61,43.9,58.3,43.9,54.9z"/>
		<path class="st1" d="M56.2,54.9L56.2,54.9c0-3.3,2.4-6.2,6-6.2s6,2.9,6,6.1v0c0,3.3-2.4,6.2-6,6.2C58.5,61,56.2,58.1,56.2,54.9z     M67.3,54.9L67.3,54.9c0-3-2.2-5.4-5.1-5.4c-3,0-5.1,2.4-5.1,5.3v0c0,3,2.2,5.4,5.1,5.4S67.3,57.8,67.3,54.9z"/>
		<path class="st1" d="M71.2,48.9H72l4.8,7.1l4.8-7.1h0.8v12h-0.9V50.4l-4.7,6.9h-0.1L72,50.4v10.4h-0.9L71.2,48.9z"/>
		<path class="st1" d="M86,48.9h4.3c2.6,0,4.4,1.4,4.4,3.7v0c0,2.5-2.2,3.8-4.7,3.8h-3.2v4.5H86L86,48.9z M90.2,55.5    c2.2,0,3.7-1.2,3.7-2.9v0c0-1.9-1.5-2.9-3.6-2.9h-3.4v5.9L90.2,55.5z"/>
		<path class="st1" d="M97.4,48.9h0.9V60h7v0.8h-7.9V48.9z"/>
		<path class="st1" d="M108.1,48.9h0.9v12h-0.9V48.9z"/>
		<path class="st1" d="M117.2,48.8h0.9l5.6,12h-1l-1.5-3.3h-7.1l-1.5,3.3h-0.9L117.2,48.8z M120.8,56.7l-3.1-6.9l-3.2,6.9H120.8z"/>
		<path class="st1" d="M126.2,48.9h0.8l8.2,10.4V48.9h0.9v12h-0.7L127,50.2v10.6h-0.9L126.2,48.9z"/>
		<path class="st1" d="M143,49.7h-4.2v-0.8h9.2v0.8h-4.2v11.1H143L143,49.7z"/>
	</g>
</g>
</svg>