<?xml version="1.0" encoding="UTF-8"?>
<!-- Generator: Adobe Illustrator 23.0.3, SVG Export Plug-In . SVG Version: 6.00 Build 0)  -->
<svg version="1.1" id="Слой_1" xmlns="http://www.w3.org/2000/svg" xmlns:xlink="http://www.w3.org/1999/xlink" x="0px" y="0px" viewBox="0 0 100 100" style="enable-background:new 0 0 100 100;" xml:space="preserve">
<style type="text/css">
	.st0{fill:none;stroke:#2D3547;stroke-width:2;stroke-linecap:round;stroke-linejoin:round;stroke-miterlimit:10;}
	.st1{fill:none;stroke:#2D3547;stroke-width:4;stroke-linecap:round;stroke-linejoin:round;stroke-miterlimit:10;}
	.st2{fill:none;stroke:#2D3547;stroke-width:3;stroke-linecap:round;stroke-linejoin:round;stroke-miterlimit:10;}
	.st3{fill:none;stroke:#06ADEF;stroke-width:3;stroke-linecap:round;stroke-linejoin:round;stroke-miterlimit:10;}
	.st4{fill:none;stroke:#06ADEF;stroke-width:4;stroke-linecap:round;stroke-linejoin:round;stroke-miterlimit:10;}
</style>
<line class="st0" x1="64.3" y1="29.1" x2="64.3" y2="34.4"/>
<path class="st1" d="M64.3,66.3v19.2c0,2.2-1.8,4-4,4h-38c-2.2,0-4-1.8-4-4v-71c0-2.2,1.8-4,4-4h39.9c1.2,0,2.1,0.9,2.1,2.1v6.5  c0,1.2-0.9,2.1-2.1,2.1H31.9"/>
<line class="st0" x1="24" y1="21.3" x2="18.3" y2="21.3"/>
<line class="st0" x1="63.8" y1="77.1" x2="58" y2="77.1"/>
<line class="st2" x1="44.1" y1="83.7" x2="38.4" y2="83.7"/>
<line class="st0" x1="18.3" y1="77.1" x2="51.1" y2="77.1"/>
<g>
	<polyline class="st3" points="45.1,41.4 60.3,52.5 75.9,41.4  "/>
	<line class="st0" x1="51.8" y1="53.2" x2="45.1" y2="59.5"/>
	<line class="st0" x1="68.8" y1="53.2" x2="75.5" y2="59.5"/>
	<path class="st4" d="M76.4,64.5H43.9c-2.2,0-4-1.8-4-4V38.9c0-2.2,1.8-4,4-4h32.5c2.2,0,4,1.8,4,4v21.7   C80.4,62.7,78.7,64.5,76.4,64.5z"/>
</g>
</svg>