<svg id="Capa_1" enable-background="new 0 0 512.001 512.001" height="512" viewBox="0 0 512.001 512.001" width="512" xmlns="http://www.w3.org/2000/svg"><g><path d="m112.121 409.447c-24.895-.173-49.79-2.204-74.685-6.094-17.746-2.773-30.723-18.322-29.899-36.265 3.598-78.361 17.857-156.723 42.775-235.084 7.905-24.86 30.985-41.756 57.072-41.756h21.589c25.358 0 48.048 15.948 56.436 39.879 19.613 55.951 28.819 110.575 33.59 162.81 5.737 62.794-43.824 116.948-106.878 116.51z" fill="#dd636e"/><path d="m219 292.936c-4.772-52.235-13.977-106.859-33.59-162.81-8.389-23.931-31.078-39.879-56.436-39.879h-21.589c-.069 0-.138.004-.207.004 25.272.089 47.859 16.011 56.224 39.874 19.613 55.951 28.819 110.575 33.59 162.81 5.469 59.87-39.329 111.884-98.162 116.22 4.43.148 8.861.259 13.291.29 63.054.439 112.615-53.714 106.879-116.509z" fill="#da4a54"/><path d="m399.879 409.447c24.895-.173 49.79-2.204 74.685-6.094 17.747-2.773 30.723-18.322 29.899-36.264-3.598-78.361-17.857-156.723-42.775-235.084-7.905-24.86-30.985-41.756-57.072-41.756h-21.589c-25.358 0-48.048 15.948-56.436 39.879-19.613 55.951-28.819 110.575-33.59 162.81-5.738 62.793 43.823 116.947 106.878 116.509z" fill="#dd636e"/><path d="m504.463 367.088c-3.598-78.361-17.857-156.723-42.776-235.084-7.906-24.86-30.985-41.756-57.072-41.756h-21.589c-.198 0-.395.01-.593.012 25.849.247 48.648 17.068 56.495 41.745 24.919 78.361 39.177 156.723 42.775 235.084.824 17.943-12.153 33.492-29.899 36.264-20.29 3.17-40.58 5.084-60.87 5.786 2.948.223 5.93.329 8.944.308 24.895-.173 49.79-2.204 74.685-6.094 17.747-2.773 30.724-18.322 29.9-36.265z" fill="#da4a54"/><path d="m351.621 236.395-60.512-43.305c-11.241-8.045-17.91-21.019-17.91-34.842v-137.841h-1.311-31.776-1.311v137.841c0 13.823-6.669 26.797-17.91 34.842l-60.512 43.305 19.256 26.907 51.431-36.806c14.91-10.671 34.958-10.671 49.869 0l51.431 36.806z" fill="#cb5769"/><g><circle cx="313.516" cy="415.496" fill="#b3e59f" r="76.098"/><path d="m313.516 339.399c-4.397 0-8.701.394-12.894 1.11 35.883 6.128 63.204 37.358 63.204 74.988s-27.32 68.86-63.204 74.988c4.193.716 8.496 1.11 12.894 1.11 42.027 0 76.098-34.07 76.098-76.098-.001-42.028-34.071-76.098-76.098-76.098z" fill="#95d6a4"/><path d="m353.82 398.438h-18.807c-2.452 0-4.439-1.987-4.439-4.439v-18.807c0-2.452-1.987-4.439-4.439-4.439h-25.238c-2.452 0-4.439 1.987-4.439 4.439v18.808c0 2.452-1.987 4.439-4.439 4.439h-18.807c-2.452 0-4.439 1.987-4.439 4.439v25.238c0 2.452 1.987 4.439 4.439 4.439h18.807c2.452 0 4.439 1.987 4.439 4.439v18.806c0 2.452 1.987 4.439 4.439 4.439h25.238c2.452 0 4.439-1.987 4.439-4.439v-18.807c0-2.452 1.987-4.439 4.439-4.439h18.807c2.452 0 4.439-1.987 4.439-4.439v-25.238c-.001-2.451-1.988-4.439-4.439-4.439z" fill="#f6f6f6"/></g><g><path d="m178.331 132.607c7.6 21.68 14.059 44.536 19.209 67.972l-41.526 29.718c-3.369 2.41-4.146 7.095-1.734 10.464 1.464 2.046 3.767 3.136 6.104 3.136 1.511 0 3.037-.456 4.359-1.402l60.512-43.305c13.178-9.432 21.045-24.736 21.045-40.94v-137.843c0-4.143-3.357-7.5-7.5-7.5s-7.5 3.357-7.5 7.5v137.842c0 11.376-5.523 22.121-14.775 28.743l-5.744 4.11c-5.033-21.837-11.175-43.145-18.294-63.456-.809-2.308-1.772-4.628-2.865-6.896-1.798-3.732-6.283-5.302-10.012-3.502-3.731 1.798-5.3 6.28-3.502 10.012.851 1.766 1.599 3.565 2.223 5.347z"/><path d="m511.955 366.745c-1.805-39.291-6.342-79.135-13.486-118.426-.74-4.076-4.653-6.78-8.721-6.037-4.075.741-6.778 4.646-6.037 8.721 7.024 38.634 11.485 77.807 13.26 116.43.645 14.054-9.486 26.311-23.565 28.51-29.232 4.567-61.658 6.456-77.398 5.962-6.511-39.654-41.023-70.005-82.492-70.005-3.028 0-6.018.162-8.964.478-3.921-12.485-5.295-25.497-4.084-38.758 1.3-14.227 2.829-27.594 4.648-40.596l22.884 16.376c1.323.947 2.848 1.402 4.358 1.402 2.338 0 4.642-1.09 6.105-3.136 2.411-3.369 1.635-8.054-1.733-10.464l-51.433-36.808c-17.524-12.54-41.073-12.539-58.598.001l-51.432 36.807c-3.368 2.41-4.145 7.095-1.733 10.464 2.409 3.367 7.094 4.146 10.464 1.733l22.885-16.377c1.817 12.996 3.348 26.375 4.647 40.596 2.548 27.895-6.854 55.711-25.796 76.318-18.724 20.369-45.251 32.013-72.88 32.013-.227 0-.456-.001-.683-.003-24.404-.169-49.161-2.189-73.58-6.005-14.079-2.199-24.209-14.456-23.563-28.51 3.551-77.34 17.826-155.784 42.431-233.156 6.947-21.849 27.011-36.528 49.924-36.528h21.59c10.478 0 20.613 3.097 29.312 8.954 3.436 2.313 8.096 1.405 10.41-2.031 2.313-3.436 1.404-8.097-2.031-10.41-11.184-7.531-24.217-11.513-37.69-11.513h-21.59c-29.475 0-55.282 18.881-64.219 46.983-25.001 78.622-39.508 158.365-43.12 237.015-.997 21.711 14.579 40.635 36.232 44.018 25.148 3.929 50.648 6.01 75.792 6.185.263.002.523.003.785.003 31.815-.001 62.365-13.408 83.924-36.861 21.802-23.718 32.623-55.732 29.69-87.835-1.58-17.298-3.5-33.386-5.853-49.058l14.814-10.602c12.304-8.805 28.837-8.804 41.139-.001l14.816 10.604c-2.356 15.688-4.274 31.754-5.854 49.057-1.344 14.715.082 29.17 4.239 43.08-34.566 10.257-59.851 42.312-59.851 80.162 0 46.096 37.502 83.598 83.598 83.598 14.151 0 28.15-3.615 40.484-10.456 3.622-2.009 4.93-6.574 2.921-10.196-2.01-3.622-6.575-4.934-10.196-2.921-10.113 5.608-21.597 8.573-33.209 8.573-37.825 0-68.598-30.772-68.598-68.598 0-37.824 30.772-68.597 68.598-68.597 37.824 0 68.597 30.772 68.597 68.597 0 15.246-4.909 29.688-14.196 41.765-2.525 3.284-1.91 7.992 1.373 10.518 3.284 2.525 7.993 1.909 10.518-1.373 11.029-14.343 16.993-31.42 17.293-49.474 17.944.32 49.016-1.543 78.621-6.168 21.652-3.385 37.23-22.309 36.233-44.02z"/><path d="m156.173 167.463c3.637-1.97 4.992-6.514 3.027-10.155-1.968-3.644-6.514-5.008-10.162-3.039-3.093 1.669-13.189 7.713-15.094 16.3-.14.03-.279.062-.419.094-7.147 1.653-14.388-9.201-16.355-13.119-1.835-3.713-6.335-5.232-10.048-3.397-3.713 1.837-5.233 6.335-3.397 10.048 4.75 9.602 17.086 24.844 33.215 21.074 3.273-.764 5.028.069 6.063.764 4.155 2.783 6.211 10.307 6.604 12.728.582 3.694 3.77 6.335 7.399 6.335.379 0 .763-.028 1.149-.088 4.094-.63 6.902-4.459 6.273-8.553-.247-1.604-2.707-15.874-13.002-22.833-.613-.415-1.241-.793-1.883-1.138 1.437-1.569 4.149-3.666 6.63-5.021z"/><path d="m165.172 297.751c1.241-3.951-.956-8.161-4.908-9.402s-8.162.957-9.402 4.908c-.265.841-2.901 8.148-13.922 5.571-16.125-3.769-28.465 11.475-33.215 21.074-1.832 3.705-.317 8.184 3.382 10.027 1.072.534 2.211.787 3.333.787 2.751 0 5.403-1.521 6.721-4.145 1.867-3.718 8.429-13.603 15.164-13.303-.348 5.971 2.093 11.435 4.192 14.345 1.466 2.033 3.761 3.114 6.089 3.114 1.521 0 3.055-.461 4.381-1.418 3.36-2.423 4.119-7.11 1.696-10.47-.023-.032-1.779-2.578-1.316-5.053 10.526-2.312 16.102-10.613 17.805-16.035z"/><path d="m109.585 242.691c-2.055 3.596-.806 8.178 2.791 10.232 1.174.671 2.452.989 3.714.989 2.604 0 5.135-1.357 6.519-3.78 3.175-5.556 15.187-3.053 15.414-3.001 4.02.962 8.057-1.505 9.033-5.521.979-4.025-1.489-8.082-5.514-9.061-8.534-2.077-24.863-2.274-31.957 10.142z"/><path d="m344.783 194.494c-1.156 3.964 1.114 8.101 5.073 9.274.709.21 1.423.31 2.126.31 3.229 0 6.214-2.107 7.192-5.354.196-.654 4.945-16.011 15.886-13.455 16.126 3.782 28.466-11.472 33.215-21.074 1.832-3.705.317-8.184-3.383-10.027-3.698-1.843-8.197-.337-10.053 3.357-1.978 3.939-9.238 14.803-16.365 13.139-.14-.033-.28-.064-.419-.095-1.905-8.586-12-14.63-15.093-16.3-3.646-1.967-8.195-.604-10.162 3.039-1.967 3.646-.606 8.195 3.039 10.162 2.292 1.236 4.859 3.195 6.358 4.741-9.676 4.636-15.376 15.295-17.414 22.283z"/><path d="m355.828 316.633c-3.638 1.971-4.993 6.514-3.028 10.156 1.355 2.513 3.938 3.939 6.607 3.939 1.202 0 2.422-.289 3.554-.9 3.094-1.669 13.191-7.713 15.095-16.3.14-.03.279-.062.419-.095 7.132-1.661 14.388 9.2 16.355 13.119 1.309 2.645 3.966 4.177 6.729 4.177 1.116 0 2.251-.251 3.319-.779 3.713-1.837 5.233-6.335 3.397-10.048-4.75-9.601-17.091-24.847-33.215-21.074-10.448 2.429-14.382-11.52-14.804-13.154-1.008-4.006-5.07-6.442-9.078-5.449-4.021.996-6.472 5.063-5.475 9.084.18.727 1.885 7.272 6.262 13.438 2.934 4.133 6.414 7.18 10.289 9.082-1.478 1.539-4.057 3.51-6.426 4.804z"/><path d="m370.457 232.551c-4.013.976-6.465 5.009-5.506 9.025.96 4.018 5.003 6.497 9.022 5.557.12-.028 12.228-2.58 15.417 3 1.385 2.423 3.915 3.78 6.519 3.78 1.262 0 2.54-.318 3.714-.989 3.597-2.055 4.846-6.637 2.791-10.232-7.095-12.417-23.422-12.215-31.957-10.141z"/><path d="m286.744 199.189 60.512 43.305c1.323.947 2.848 1.402 4.359 1.402 2.337 0 4.641-1.09 6.104-3.136 2.411-3.369 1.635-8.054-1.734-10.464l-41.526-29.718c5.151-23.436 11.609-46.292 19.209-67.972 7.309-20.851 27.145-34.859 49.358-34.859h21.589c22.913 0 42.977 14.68 49.924 36.528 9.235 29.041 17.097 58.49 23.366 87.53.759 3.516 3.867 5.919 7.323 5.919.524 0 1.058-.056 1.591-.171 4.049-.874 6.622-4.865 5.748-8.914-6.369-29.504-14.354-59.417-23.733-88.909-8.937-28.103-34.744-46.983-64.219-46.983h-21.589c-28.576 0-54.101 18.043-63.515 44.896-7.12 20.312-13.262 41.62-18.295 63.458l-5.744-4.11c-9.252-6.622-14.775-17.367-14.775-28.743v-137.841c0-4.143-3.357-7.5-7.5-7.5s-7.5 3.357-7.5 7.5v137.842c.002 16.204 7.869 31.509 21.047 40.94z"/><path d="m353.82 390.938h-15.746v-15.746c0-6.583-5.355-11.938-11.938-11.938h-25.238c-6.583 0-11.939 5.355-11.939 11.938v15.746h-15.746c-6.583 0-11.938 5.356-11.938 11.939v25.237c0 6.583 5.355 11.939 11.938 11.939h15.746v15.746c0 6.583 5.356 11.938 11.939 11.938h25.238c6.583 0 11.938-5.355 11.938-11.938v-15.746h15.746c6.583 0 11.938-5.356 11.938-11.939v-25.237c0-6.582-5.355-11.939-11.938-11.939zm-3.062 34.117h-15.746c-6.583 0-11.938 5.355-11.938 11.938v15.746h-19.116v-15.746c0-6.583-5.355-11.938-11.938-11.938h-15.746v-19.116h15.746c6.583 0 11.938-5.355 11.938-11.938v-15.746h19.116v15.745c0 6.583 5.355 11.938 11.938 11.938h15.746z"/></g></g></svg>