<svg enable-background="new 0 0 400 400" viewBox="0 0 400 400" xmlns="http://www.w3.org/2000/svg"><circle cx="200" cy="208.7" fill="#f1f6ff" r="123.6"/><path d="m194.9 192c2.6 1.6 5.4 2.7 8.3 3.5l3.8 1.3c1.2.4 2.4.8 3.5 1.4l1.2.5 11-10.5h.8l-30.1 42.6-14.6-13.2 7.5-7.6 7 6.4 10.5-10.1c-1.5-.6-3.2-1.1-5.3-1.7-4.1-1-8-2.8-11.4-5.2-3.5-2.7-5.5-7-5.3-11.5-.2-4.6 1.8-9.1 5.3-12.1 3.6-3 8.3-4.6 13-4.5 7.5-.2 14.5 3.5 18.4 9.9l-7.8 7.9c-1.7-4.3-6-7.1-10.6-7-4.6-.1-7.3 2.2-7.3 5.4 0 1.9.8 3.5 2.1 4.5zm26.7 20.7c.2 4.8-1.9 9.3-5.6 12.3-4 3-8.9 4.6-13.9 4.5l17.4-24.4c1.3 2.3 2.1 4.9 2.1 7.6z" fill="#06adef"/><g fill="#2d3547"><path d="m168 231.9c-.6 0-1.3-.3-1.6-.9-9.8-17.6-11-38.4-11.5-60 0-.9.7-1.7 1.6-1.9 13.6-1.7 28.8-7.7 43.7-17.3.9-.5 2-.3 2.5.5.6.9.3 2-.5 2.5-14.8 9.6-29.9 15.6-43.6 17.6.5 20.5 1.8 40.2 11 56.6.5.9.2 2-.7 2.5-.3.3-.6.4-.9.4z"/><path d="m201.2 261.7h-.7c-.3 0-.6-.1-.8-.2-10.9-5.7-19.5-12.2-26.1-20.1-.7-.8-.6-1.9.2-2.6s1.9-.6 2.6.2c6.2 7.4 14.2 13.6 24.5 19 18.9-9.9 30.5-22.8 36.4-40.6.3-1 1.4-1.5 2.3-1.2 1 .3 1.5 1.4 1.2 2.3-6.3 18.9-18.6 32.6-38.7 43-.3.2-.6.2-.9.2z"/><path d="m244.2 191.4h-.1c-1-.1-1.8-1-1.7-2 .4-5.8.6-11.7.7-17-13.7-2-28.8-8.1-43.6-17.6-.9-.6-1.1-1.7-.5-2.5.6-.9 1.7-1.1 2.5-.5 15 9.7 30.1 15.6 43.7 17.3.9.1 1.6.9 1.6 1.9-.1 5.6-.3 12.3-.8 18.8 0 .9-.8 1.6-1.8 1.6z"/><path d="m201.3 281.1h-.9c-.6 0-1.3-.2-1.9-.5-25.1-13-41.6-30.4-50.4-53.3-8.1-20.9-9.2-44-9.7-67.9 0-2.1 1.5-3.8 3.6-4.1 17.1-2.1 36-9.4 54.8-21.2 0-.1.1-.2.2-.3.9-1.3 2.4-2 3.9-1.8 1.5-.2 3 .5 3.9 1.8.1.1.1.2.2.3 18.8 11.8 37.7 19.1 54.8 21.2 2.1.3 3.6 2 3.6 4.1-.5 23.8-1.6 47-9.7 67.9-8.8 22.9-25.3 40.3-50.4 53.3-.7.3-1.3.5-2 .5zm-54.7-118.2c.5 21.8 1.9 42.9 9.1 61.5 8 20.8 22.4 36.2 45.2 48.3 22.8-12.1 37.1-27.5 45.2-48.3 7.2-18.7 8.5-39.7 9.1-61.5-17.2-2.7-35.8-10.2-54.2-21.7-18.6 11.5-37.2 19-54.4 21.7z"/><path d="m236.4 271.1c-.7 0-1.3-.5-1.5-1.3-.1-.8.4-1.5 1.2-1.7l12.8-1.9c.8-.1 1.5.4 1.7 1.2.1.8-.4 1.5-1.2 1.7l-12.8 1.9c-.1.1-.1.1-.2.1z"/><path d="m248.9 268.6c-.5 0-.9-.2-1.2-.6-.1-.1-5.7-7.1-18-10.1-.8-.2-1.3-1-1.1-1.8s1-1.3 1.8-1.1c9.8 2.4 15.7 7 18.2 9.5l11.5-21c-1.9-1.7-7.1-5.9-13.9-9.1-.7-.3-1-1.2-.7-2 .3-.7 1.2-1 2-.7 9.1 4.3 15.2 10.1 15.5 10.4.5.5.6 1.2.3 1.8l-13.1 23.8c-.2.4-.7.7-1.2.8 0 .1-.1.1-.1.1z"/><path d="m262 285.2c-.3 0-.5-.1-.7-.2l-25.8-14.8c-.7-.4-.9-1.2-.6-1.9l3.7-7.6c.4-.7 1.2-1 2-.7.7.4 1 1.2.7 2l-3.1 6.4 22.4 12.8v-13.2c0-.6.3-1.1.8-1.3l12.3-6.1-15.7-10.3c-.7-.4-.9-1.4-.4-2 .4-.7 1.4-.9 2-.4l17.8 11.8c.4.3.7.8.7 1.3s-.3 1-.8 1.2l-13.8 6.8v14.8c0 .5-.3 1-.7 1.3-.3 0-.6.1-.8.1z"/><path d="m151.1 268.6h-.1c-.5 0-.9-.3-1.2-.8l-13.1-23.8c-.3-.6-.2-1.3.3-1.8.3-.2 6.4-6.1 15.5-10.4.7-.3 1.6 0 2 .7.3.7 0 1.6-.7 2-6.8 3.2-11.9 7.4-13.9 9.1l11.5 21c2.5-2.5 8.4-7.2 18.2-9.5.8-.2 1.6.3 1.8 1.1s-.3 1.6-1.1 1.8c-12.4 3-18 10-18 10.1-.3.3-.8.5-1.2.5z"/><path d="m138 285.2c-.3 0-.5-.1-.7-.2-.5-.3-.7-.7-.7-1.3v-14.8l-13.8-6.8c-.5-.2-.8-.7-.8-1.2s.2-1 .7-1.3l17.8-11.8c.7-.4 1.6-.3 2 .4s.3 1.6-.4 2l-15.7 10.3 12.3 6.1c.5.2.8.8.8 1.3v13.2l22.4-12.8-3.1-6.4c-.4-.7-.1-1.6.7-2 .7-.4 1.6-.1 2 .7l3.7 7.6c.3.7.1 1.5-.6 1.9l-25.8 14.9c-.3.1-.5.2-.8.2z"/><path d="m163.9 270.3c-.1 0-.1 0-.2 0l-12.8-1.9c-.8-.1-1.4-.9-1.2-1.7.1-.8.9-1.4 1.7-1.2l12.8 1.9c.8.1 1.4.9 1.2 1.7-.2.7-.8 1.2-1.5 1.2z"/></g><path d="m78 89.9h-6.4v-6.4c0-.7-.6-1.4-1.4-1.4-.7 0-1.4.6-1.4 1.4v6.4h-6.4c-.7 0-1.4.6-1.4 1.4 0 .7.6 1.4 1.4 1.4h6.4v6.4c0 .7.6 1.4 1.4 1.4.7 0 1.4-.6 1.4-1.4v-6.4h6.4c.7 0 1.4-.6 1.4-1.4-.1-.7-.7-1.4-1.4-1.4z" fill="#def4ff"/><path d="m137.2 384h-5.6v-5.6c0-.7-.5-1.2-1.2-1.2s-1.2.5-1.2 1.2v5.6h-5.6c-.7 0-1.2.5-1.2 1.2s.5 1.2 1.2 1.2h5.6v5.6c0 .7.5 1.2 1.2 1.2s1.2-.5 1.2-1.2v-5.6h5.6c.7 0 1.2-.5 1.2-1.2s-.5-1.2-1.2-1.2z" fill="#def4ff"/><path d="m356.2 147.9c2.9 0 5.3-2.4 5.3-5.3v-14.5c0-2.9-2.4-5.3-5.3-5.3h-23.6c-2.9 0-5.3 2.4-5.3 5.3v14.5c0 2.9 2.4 5.3 5.3 5.3zm-1.2-21.4-10.6 8.5-10.7-8.5zm-24 16.2v-13.8l13.5 11 13.4-11v13.8c0 .9-.7 1.7-1.7 1.7h-23.6c-.9-.1-1.6-.8-1.6-1.7z" fill="#def4ff"/><path d="m21.8 86.4c-11.5 0-20.9 9.4-20.9 20.9s9.4 20.9 20.9 20.9 20.9-9.4 20.9-20.9-9.4-20.9-20.9-20.9zm-17.9 22.4h5.5c.1 2.4.4 4.7.9 6.8h-4.4c-1.1-2.1-1.8-4.4-2-6.8zm19.4-12.7v-6.5c2.4.7 4.4 3.1 5.9 6.5zm6.9 3c.6 2.1 1 4.4 1.1 6.8h-8v-6.8zm-9.9-9.5v6.5h-5.9c1.5-3.4 3.6-5.8 5.9-6.5zm0 9.5v6.8h-8c.1-2.4.5-4.7 1.1-6.8zm-10.9 6.7h-5.5c.2-2.4.9-4.7 1.9-6.8h4.4c-.4 2.2-.7 4.4-.8 6.8zm2.9 3h8v6.8h-6.9c-.6-2.1-1-4.4-1.1-6.8zm8 9.7v6.5c-2.4-.7-4.4-3.1-5.9-6.5zm3 6.5v-6.5h5.9c-1.5 3.4-3.6 5.8-5.9 6.5zm0-9.4v-6.8h8c-.1 2.4-.5 4.7-1.1 6.8zm10.9-6.8h5.5c-.2 2.4-.9 4.7-1.9 6.8h-4.4c.4-2.1.7-4.4.8-6.8zm0-3c-.1-2.4-.4-4.7-.9-6.8h4.4c1.1 2.1 1.7 4.3 1.9 6.8zm1.6-9.7h-3.5c-.7-1.8-1.5-3.5-2.5-4.8 2.4 1.2 4.4 2.8 6 4.8zm-22.1-4.8c-1 1.4-1.8 3-2.5 4.8h-3.4c1.6-2 3.6-3.6 5.9-4.8zm-5.9 27.2h3.5c.7 1.8 1.5 3.4 2.5 4.8-2.4-1.2-4.4-2.8-6-4.8zm22.1 4.8c1-1.4 1.8-3 2.5-4.8h3.5c-1.7 2-3.7 3.6-6 4.8z" fill="#def4ff"/><path d="m381.5 343.9h-82c-2.4 0-4.4 2-4.4 4.4v19c0 2.4 2 4.4 4.4 4.4h82c2.4 0 4.4-2 4.4-4.4v-19c0-2.5-2-4.4-4.4-4.4z" fill="none" stroke="#def4ff" stroke-miterlimit="10" stroke-width="2"/><path d="m377.6 357.8c0 1.9-1.6 3.5-3.5 3.5s-3.5-1.6-3.5-3.5 1.6-3.5 3.5-3.5 3.5 1.5 3.5 3.5z" fill="#d05451"/><path d="m366 357.8c0 1.9-1.6 3.5-3.5 3.5s-3.5-1.6-3.5-3.5 1.6-3.5 3.5-3.5 3.5 1.5 3.5 3.5z" fill="#d05451"/><path d="m354.3 357.8c0 1.9-1.6 3.5-3.5 3.5s-3.5-1.6-3.5-3.5 1.6-3.5 3.5-3.5 3.5 1.5 3.5 3.5z" fill="#f4d45a"/><path d="m305.5 347c-1.2 0-2.1.9-2.1 2.1v17.3c0 1.2.9 2.1 2.1 2.1s2.1-.9 2.1-2.1v-17.3c0-1.2-.9-2.1-2.1-2.1z" fill="#def4ff"/><path d="m314.1 347c-1.2 0-2.1.9-2.1 2.1v17.3c0 1.2.9 2.1 2.1 2.1s2.1-.9 2.1-2.1v-17.3c0-1.2-.9-2.1-2.1-2.1z" fill="#def4ff"/><path d="m322.7 347c-1.2 0-2.1.9-2.1 2.1v17.3c0 1.2.9 2.1 2.1 2.1s2.1-.9 2.1-2.1v-17.3c.1-1.2-.9-2.1-2.1-2.1z" fill="#def4ff"/><path d="m331.4 347c-1.2 0-2.1.9-2.1 2.1v17.3c0 1.2.9 2.1 2.1 2.1s2.1-.9 2.1-2.1v-17.3c0-1.2-1-2.1-2.1-2.1z" fill="#def4ff"/><path d="m340 347c-1.2 0-2.1.9-2.1 2.1v17.3c0 1.2.9 2.1 2.1 2.1s2.1-.9 2.1-2.1v-17.3c0-1.2-.9-2.1-2.1-2.1z" fill="#def4ff"/><path d="m381.5 307.8h-82c-2.4 0-4.4 2-4.4 4.4v19c0 2.4 2 4.4 4.4 4.4h82c2.4 0 4.4-2 4.4-4.4v-19c0-2.4-2-4.4-4.4-4.4z" fill="none" stroke="#def4ff" stroke-miterlimit="10" stroke-width="2"/><path d="m377.6 321.7c0 1.9-1.6 3.5-3.5 3.5s-3.5-1.6-3.5-3.5 1.6-3.5 3.5-3.5 3.5 1.6 3.5 3.5z" fill="#d05451"/><path d="m366 321.7c0 1.9-1.6 3.5-3.5 3.5s-3.5-1.6-3.5-3.5 1.6-3.5 3.5-3.5 3.5 1.6 3.5 3.5z" fill="#d05451"/><path d="m354.3 321.7c0 1.9-1.6 3.5-3.5 3.5s-3.5-1.6-3.5-3.5 1.6-3.5 3.5-3.5 3.5 1.6 3.5 3.5z" fill="#f4d45a"/><path d="m305.5 311c-1.2 0-2.1.9-2.1 2.1v17.3c0 1.2.9 2.1 2.1 2.1s2.1-.9 2.1-2.1v-17.3c0-1.2-.9-2.1-2.1-2.1z" fill="#def4ff"/><path d="m314.1 311c-1.2 0-2.1.9-2.1 2.1v17.3c0 1.2.9 2.1 2.1 2.1s2.1-.9 2.1-2.1v-17.3c0-1.2-.9-2.1-2.1-2.1z" fill="#def4ff"/><path d="m322.7 311c-1.2 0-2.1.9-2.1 2.1v17.3c0 1.2.9 2.1 2.1 2.1s2.1-.9 2.1-2.1v-17.3c.1-1.2-.9-2.1-2.1-2.1z" fill="#def4ff"/><path d="m331.4 311c-1.2 0-2.1.9-2.1 2.1v17.3c0 1.2.9 2.1 2.1 2.1s2.1-.9 2.1-2.1v-17.3c0-1.2-1-2.1-2.1-2.1z" fill="#def4ff"/><path d="m340 311c-1.2 0-2.1.9-2.1 2.1v17.3c0 1.2.9 2.1 2.1 2.1s2.1-.9 2.1-2.1v-17.3c0-1.2-.9-2.1-2.1-2.1z" fill="#def4ff"/><path d="m306.7 26.5c-3.1 0-5.9 1.2-8 3.2-3.7-14.5-16.9-25.2-32.6-25.2-13.2 0-24.6 7.6-30.1 18.6-2.3-1.2-5-1.9-7.8-1.9-9.4 0-17 7.6-17 17h107.2c-.1-6.5-5.3-11.7-11.7-11.7z" fill="none" stroke="#def4ff" stroke-miterlimit="10" stroke-width="2"/><ellipse cx="364.2" cy="98.1" fill="#def4ff" rx="6.9" ry="7.1"/><path d="m364.2 80.6c9.7 0 17.6 7.9 17.6 17.6 0 2.4-.5 4.7-1.4 6.8" style="fill:none;stroke:#def4ff;stroke-width:2;stroke-linecap:round;stroke-linejoin:round;stroke-miterlimit:10"/><path d="m364.2 67.6c16.9 0 30.6 13.7 30.6 30.6 0 2.1-.2 4.2-.6 6.2" style="fill:none;stroke:#def4ff;stroke-width:2;stroke-linecap:round;stroke-linejoin:round;stroke-miterlimit:10"/><path d="m264.8 38.2v4" fill="none" stroke="#def4ff" stroke-miterlimit="10" stroke-width="2"/><path d="m264.8 51.2v31.6" fill="none" stroke="#def4ff" stroke-dasharray="9.0267 9.0267" stroke-miterlimit="10" stroke-width="2"/><path d="m264.8 87.3v4" fill="none" stroke="#def4ff" stroke-miterlimit="10" stroke-width="2"/><path d="m58.2 335.9c-.6-1.3-1.8-2.1-3.2-2.1h-26.2v11.4h33.4z" fill="none" stroke="#def4ff" stroke-miterlimit="10" stroke-width="2"/><path d="m101 345.1h-82.9v47.2c0 1.7 1.4 3.1 3.1 3.1h79.8c1.7 0 3.1-1.4 3.1-3.1v-44.1c.1-1.7-1.4-3.1-3.1-3.1z" fill="none" stroke="#def4ff" stroke-miterlimit="10" stroke-width="2"/><path d="m47.5 335.9c-.6-1.3-1.8-2.1-3.2-2.1h-23c-1.7 0-3.1 1.4-3.1 3.1v8.2h33.4z" fill="none" stroke="#def4ff" stroke-miterlimit="10" stroke-width="2"/><path d="m58.9 226.5h-33.2v100.1" fill="none" stroke="#def4ff" stroke-dasharray="8" stroke-miterlimit="10" stroke-width="2"/></svg>