<?xml version="1.0" encoding="UTF-8"?>
<!-- Generator: Adobe Illustrator 23.0.3, SVG Export Plug-In . SVG Version: 6.00 Build 0)  -->
<svg version="1.1" id="Слой_1" xmlns="http://www.w3.org/2000/svg" xmlns:xlink="http://www.w3.org/1999/xlink" x="0px" y="0px" viewBox="0 0 150 70" style="enable-background:new 0 0 150 70;" xml:space="preserve">
<style type="text/css">
	.st0{fill:#00B2F9;}
	.st1{fill:#B1B4C7;}
</style>
<g>
	<path class="st0" d="M10.5,34.6v31.2h44.3V34.6H10.5z M30.4,58.1l-7.3-7.3l3.1-3.1l4.2,4.2l9.7-9.7l3.1,3.1L30.4,58.1z"/>
	<path class="st0" d="M23.6,20.7c0-5,4.1-9.1,9.1-9.1c5,0,9.1,4.1,9.1,9.1v9.4h7.5v-9.4c0-9.1-7.5-16.6-16.6-16.6   c-9.1,0-16.6,7.4-16.6,16.6v9.4h7.5L23.6,20.7L23.6,20.7z"/>
	<path class="st1" d="M91.1,31.9c0-4.5-2.6-7.1-6.8-8.6l-3.9-1.6c-3.1-1.1-5.2-1.9-5.2-3.7c0-1.9,1.6-2.9,4-2.9   c3.1,0,5.1,0.9,7.3,2.5l3.6-4.5c-2.9-2.7-6.7-4.2-10.6-4.2C72.8,8.8,68,13,68,18.2c0,4.6,3.2,7.4,6.8,8.7l4.1,1.7   c3,1.2,4.9,1.9,4.9,4.1c0,1.6-1.4,2.8-4.5,2.8c-3.1,0-6-1.4-8.4-3.3l-4.1,4.9c3.4,3,7.8,4.6,12.1,4.6   C86.7,41.7,91.1,37.1,91.1,31.9z"/>
	<path class="st1" d="M108.6,23.2l-3.9-1.6c-3.1-1.1-5.2-1.9-5.2-3.7c0-1.9,1.6-2.9,4-2.9c3.1,0,5.1,0.9,7.3,2.5l3.6-4.5   c-2.9-2.7-6.7-4.2-10.6-4.2c-6.9,0-11.6,4.2-11.6,9.5c0,4.6,3.2,7.4,6.8,8.7l4.1,1.7c3,1.2,4.9,1.9,4.9,4.1c0,1.6-1.4,2.8-4.5,2.8   c-3.1,0-6-1.4-8.4-3.3l-4.1,4.9c3.4,3,7.8,4.6,12.1,4.6c7.9,0,12.3-4.6,12.3-9.8C115.4,27.4,112.8,24.8,108.6,23.2z"/>
	<polygon class="st1" points="125.3,35.1 125.3,9.4 118.2,9.4 118.2,41.1 139.5,41.1 139.5,35.1  "/>
	<path class="st1" d="M73.5,52.4l-1.9-0.8c-1.2-0.5-2.5-1-2.5-2.3c0-1.2,1.1-2,2.7-2c1.4,0,2.5,0.5,3.4,1.3l0.9-1.1   c-1-1-2.5-1.7-4.2-1.7c-2.6,0-4.5,1.5-4.5,3.6c0,2,1.6,3,3,3.5l2,0.9c1.4,0.6,2.5,1,2.5,2.5c0,1.3-1.1,2.2-3,2.2   c-1.6,0-3-0.7-4-1.7l-1,1.2c1.2,1.2,3,2,5,2c3,0,4.9-1.7,4.9-3.9C76.6,54,75.2,53.1,73.5,52.4z"/>
	<polygon class="st1" points="82,53.3 87.7,53.3 87.7,51.8 82,51.8 82,47.4 88.8,47.4 88.8,46 80.3,46 80.3,59.7 89,59.7 89,58.2    82,58.2  "/>
	<path class="st1" d="M97.9,58.4c-2.6,0-4.4-2.2-4.4-5.6c0-3.4,1.7-5.6,4.4-5.6c1.1,0,2.1,0.5,2.7,1.2l1-1.1   c-0.8-0.9-2.1-1.7-3.7-1.7c-3.6,0-6.2,2.7-6.2,7.1c0,4.5,2.6,7.1,6,7.1c1.8,0,3.2-0.7,4.2-2l-1-1.1C100.2,57.9,99.2,58.4,97.9,58.4   z M112.2,54.6c0,2.9-1.2,3.9-2.9,3.9c-1.6,0-2.9-1-2.9-3.9V46h-1.7v8.6c0,3.9,2,5.5,4.6,5.5s4.6-1.5,4.6-5.5V46h-1.7L112.2,54.6   L112.2,54.6z M126.7,49.8c0-2.9-2-3.9-4.8-3.9h-4.3v13.7h1.7v-5.8h2.5l3.3,5.8h2l-3.5-6C125.5,53.3,126.7,52,126.7,49.8z    M121.7,52.5h-2.3v-5.1h2.3c2.1,0,3.3,0.6,3.3,2.5C125,51.6,123.8,52.5,121.7,52.5z"/>
	<polygon class="st1" points="132.3,53.3 138,53.3 138,51.8 132.3,51.8 132.3,47.4 139,47.4 139,46 130.5,46 130.5,59.7 139.2,59.7    139.2,58.2 132.3,58.2  "/>
</g>
</svg>