<svg height="512" viewBox="0 0 46 59" width="512" xmlns="http://www.w3.org/2000/svg"><g id="Page-1" fill="none" fill-rule="evenodd"><g id="025---Vaccine" fill-rule="nonzero"><path id="Shape" d="m34 21h4c1.1045695 0 2 .8954305 2 2v3h-8v-3c0-1.1045695.8954305-2 2-2z" fill="#2980ba"/><path id="Rectangle-path" d="m8 46h6v10h-6z" fill="#2980ba"/><path id="Shape" d="m11 14c-.5522847 0-1-.4477153-1-1v-12c0-.55228475.4477153-1 1-1s1 .44771525 1 1v12c0 .5522847-.4477153 1-1 1z" fill="#95a5a5"/><path id="Shape" d="m8 13h6c1.1045695 0 2 .8954305 2 2v3h-10v-3c0-1.1045695.8954305-2 2-2z" fill="#3b97d3"/><path id="Shape" d="m19 19v26h-16v-26c.0032948-1.1032019.89679813-1.9967052 2-2h12c1.1032019.0032948 1.9967052.8967981 2 2z" fill="#90bae1"/><path id="Shape" d="m14 19v26h-11v-26c.0032948-1.1032019.89679813-1.9967052 2-2h7c1.1032019.0032948 1.9967052.8967981 2 2z" fill="#b0d3f0"/><path id="Shape" d="m19 32v11h-16v-11s1 3 6 3c1.7526275.0191002 3.478627-.4296596 5-1.3 1.53-.81 2.82-1.7 5-1.7z" fill="#f0c419"/><path id="Shape" d="m0 43h22v1c0 1.6568542-1.3431458 3-3 3h-16c-1.65685425 0-3-1.3431458-3-3z" fill="#3b97d3"/><path id="Shape" d="m5 55h12c1.1045695 0 2 .8954305 2 2v2h-16v-2c0-1.1045695.8954305-2 2-2z" fill="#3b97d3"/><g fill="#285680"><path id="Shape" d="m7 39c0 .5522847-.44771525 1-1 1h-3v-2h3c.55228475 0 1 .4477153 1 1z"/><path id="Shape" d="m7 30c0 .5522847-.44771525 1-1 1h-3v-2h3c.55228475 0 1 .4477153 1 1z"/><path id="Shape" d="m7 25c0 .5522847-.44771525 1-1 1h-3v-2h3c.55228475 0 1 .4477153 1 1z"/></g><path id="Shape" d="m46 38.66v18.34c-.0032948 1.1032019-.8967981 1.9967052-2 2h-16c-1.1032019-.0032948-1.9967052-.8967981-2-2v-18.34c-.0008345-1.0611852.4200457-2.0792116 1.17-2.83l2.66-2.66c.7499543-.7507884 1.1708345-1.7688148 1.17-2.83v-2.34h10v2.34c-.0008345 1.0611852.4200457 2.0792116 1.17 2.83l2.66 2.66c.7499543.7507884 1.1708345 1.7688148 1.17 2.83z" fill="#90bae1"/><path id="Shape" d="m41 38.66v18.34c-.0032948 1.1032019-.8967981 1.9967052-2 2h-11c-1.1032019-.0032948-1.9967052-.8967981-2-2v-18.34c-.0008345-1.0611852.4200457-2.0792116 1.17-2.83l2.66-2.66c.7499543-.7507884 1.1708345-1.7688148 1.17-2.83v-2.34h5v2.34c-.0008345 1.0611852.4200457 2.0792116 1.17 2.83l2.66 2.66c.7499543.7507884 1.1708345 1.7688148 1.17 2.83z" fill="#b0d3f0"/><rect id="Rectangle-path" fill="#3b97d3" height="4" rx="1" width="14" x="29" y="25"/><path id="Rectangle-path" d="m26 41h20v12h-20z" fill="#e64c3c"/><path id="Shape" d="m38 46h-1v-1c0-.5522847-.4477153-1-1-1s-1 .4477153-1 1v1h-1c-.5522847 0-1 .4477153-1 1s.4477153 1 1 1h1v1c0 .5522847.4477153 1 1 1s1-.4477153 1-1v-1h1c.5522847 0 1-.4477153 1-1s-.4477153-1-1-1z" fill="#ecf0f1"/><path id="Shape" d="m19 32v11h-5v-9.3c1.53-.81 2.82-1.7 5-1.7z" fill="#f29c1f"/></g></g></svg>