<?xml version="1.0" encoding="utf-8"?>
<!-- Generator: Adobe Illustrator 23.1.1, SVG Export Plug-In . SVG Version: 6.00 Build 0)  -->
<svg version="1.1" id="Слой_1" xmlns="http://www.w3.org/2000/svg" xmlns:xlink="http://www.w3.org/1999/xlink" x="0px" y="0px"
	 viewBox="0 0 100 100" enable-background="new 0 0 100 100" xml:space="preserve">
<polyline fill="none" stroke="#47AAEC" stroke-width="4" stroke-linecap="round" stroke-linejoin="round" points="21.3,26.5 
	24,28.7 28.2,23.7 "/>
<line fill="none" stroke="#24344A" stroke-width="2" stroke-linecap="round" stroke-linejoin="round" x1="35.9" y1="24.6" x2="72.2" y2="24.6"/>
<line fill="none" stroke="#24344A" stroke-width="2" stroke-linecap="round" stroke-linejoin="round" x1="35.9" y1="28.2" x2="72.2" y2="28.2"/>
<polyline fill="none" stroke="#47AAEC" stroke-width="4" stroke-linecap="round" stroke-linejoin="round" points="21.3,45.3 
	24,47.5 28.2,42.5 "/>
<line fill="none" stroke="#24344A" stroke-width="2" stroke-linecap="round" stroke-linejoin="round" x1="35.9" y1="42.7" x2="55.3" y2="42.7"/>
<line fill="none" stroke="#24344A" stroke-width="2" stroke-linecap="round" stroke-linejoin="round" x1="35.9" y1="46.3" x2="48.6" y2="46.3"/>
<polyline fill="none" stroke="#47AAEC" stroke-width="4" stroke-linecap="round" stroke-linejoin="round" points="21.3,64.1 
	24,66.3 28.2,61.3 "/>
<line fill="none" stroke="#24344A" stroke-width="2" stroke-linecap="round" stroke-linejoin="round" x1="35.9" y1="62.7" x2="40.4" y2="62.7"/>
<line fill="none" stroke="#24344A" stroke-width="2" stroke-linecap="round" stroke-linejoin="round" x1="35.9" y1="66.3" x2="40.4" y2="66.3"/>
<circle fill="none" stroke="#2D3547" stroke-width="4" stroke-linecap="round" stroke-linejoin="round" stroke-miterlimit="10" cx="68.3" cy="67.9" r="21"/>
<g>
	
		<polyline fill="none" stroke="#2C3549" stroke-width="2" stroke-linecap="round" stroke-linejoin="round" stroke-miterlimit="10" points="
		72.4,75.1 68.9,76.2 65.6,75.2 	"/>
	
		<line fill="none" stroke="#2C3549" stroke-width="2" stroke-linecap="round" stroke-linejoin="round" stroke-miterlimit="10" x1="70.9" y1="83.9" x2="70" y2="76"/>
	
		<line fill="none" stroke="#2C3549" stroke-width="2" stroke-linecap="round" stroke-linejoin="round" stroke-miterlimit="10" x1="67.7" y1="75.9" x2="67" y2="83.9"/>
	<path fill="none" stroke="#2C3549" stroke-width="2" stroke-linecap="round" stroke-linejoin="round" stroke-miterlimit="10" d="
		M56.5,78.2c0.6-0.8,1.3-1.3,2.3-1.4c5.6-0.5,6.8-1.6,6.7-4"/>
	<path fill="none" stroke="#2C3549" stroke-width="2" stroke-linecap="round" stroke-linejoin="round" stroke-miterlimit="10" d="
		M72.1,72.6c-0.3,2.6,1.2,3.6,6.8,4.2c0.9,0.1,1.7,0.6,2.2,1.3"/>
	<path fill="none" stroke="#2C3549" stroke-width="2" stroke-linecap="round" stroke-linejoin="round" stroke-miterlimit="10" d="
		M62.3,61.3c0,2.7,0,4.1,0,5.6s0.8,6.2,6.4,6.1c5.6-0.1,6.4-4.6,6.4-6.1s0-5.6,0-5.6c-2.6,1.3-8.5,2-13.2-4.6"/>
	<path fill="none" stroke="#2C3549" stroke-width="2" stroke-linecap="round" stroke-linejoin="round" stroke-miterlimit="10" d="
		M77.5,61.2c-0.9-3.8-2.3-8.1-8.9-8.4c-3.4-0.1-6.1,1.6-7.6,4c-1.2,1.9-1.6,4-1,5.4c2.1-0.6,4-2.2,4-2.2"/>
</g>
<path fill="none" stroke="#2D3547" stroke-width="2" stroke-linecap="round" stroke-linejoin="round" stroke-miterlimit="10" d="
	M44.3,78.9H14.6c-1.1,0-1.9-0.9-1.9-1.9V15.2c0-1.1,0.9-1.9,1.9-1.9h63.5c1.1,0,1.9,0.9,1.9,1.9v28.3"/>
</svg>
