<?xml version="1.0" encoding="UTF-8"?>
<!-- Generator: Adobe Illustrator 23.0.3, SVG Export Plug-In . SVG Version: 6.00 Build 0)  -->
<svg version="1.1" id="Слой_1" xmlns="http://www.w3.org/2000/svg" xmlns:xlink="http://www.w3.org/1999/xlink" x="0px" y="0px" viewBox="0 0 100 100" style="enable-background:new 0 0 100 100;" xml:space="preserve">
<style type="text/css">
	.st0{fill:none;stroke:#2D3547;stroke-width:4;stroke-miterlimit:10;}
	.st1{fill:none;stroke:#06ADEF;stroke-width:4;stroke-linecap:round;stroke-linejoin:round;stroke-miterlimit:10;}
	.st2{fill:none;stroke:#2D3547;stroke-width:2;stroke-miterlimit:10;}
	.st3{fill:none;stroke:#2D3547;stroke-width:2;stroke-linecap:round;stroke-linejoin:round;stroke-miterlimit:10;}
</style>
<path class="st0" d="M14.3,48.2V19c0-1.1,0.9-2,2-2h73.2c1.1,0,2,0.9,2,2v45.4c0,1.1-0.9,2-2,2H52.2"/>
<polyline class="st1" points="21.1,65.3 27.5,71.7 38,61.2 "/>
<circle class="st1" cx="29.5" cy="65.1" r="22.7"/>
<circle class="st2" cx="74.7" cy="52.6" r="7"/>
<circle class="st2" cx="67.7" cy="52.6" r="7"/>
<line class="st3" x1="20.2" y1="26.1" x2="50.3" y2="26.1"/>
<line class="st3" x1="56.3" y1="26.1" x2="61.5" y2="26.1"/>
<line class="st3" x1="51" y1="31.4" x2="61.5" y2="31.4"/>
<line class="st3" x1="47.2" y1="31.4" x2="27.6" y2="31.4"/>
<line class="st3" x1="23.6" y1="31.4" x2="20.2" y2="31.4"/>
</svg>